<svg width="32" height="48" viewBox="0 0 32 48" fill="none" xmlns="http://www.w3.org/2000/svg">
<path d="M15.6284 37.6191C15.7293 37.7168 15.7798 37.8372 15.7798 37.9805C15.7798 38.1237 15.7293 38.2441 15.6284 38.3418C15.5308 38.4395 15.4103 38.4883 15.2671 38.4883C15.1239 38.4883 15.0034 38.4395 14.9058 38.3418C14.8081 38.2441 14.7593 38.1237 14.7593 37.9805C14.7593 37.8372 14.8081 37.7168 14.9058 37.6191C15.0034 37.5182 15.1239 37.4678 15.2671 37.4678C15.4103 37.4678 15.5308 37.5182 15.6284 37.6191ZM16.8589 43.332C16.8589 43.7031 16.7124 44.04 16.4195 44.3428C16.1265 44.6455 15.7245 44.8815 15.2134 45.0508C14.7023 45.2233 14.1343 45.3096 13.5093 45.3096C12.4546 45.3096 11.6782 45.1126 11.1802 44.7188C10.6854 44.3281 10.438 43.7178 10.438 42.8877C10.438 42.4157 10.4917 41.96 10.5991 41.5205H11.2974C11.19 41.9502 11.1362 42.3571 11.1362 42.7412C11.1362 43.3467 11.3283 43.7926 11.7124 44.0791C12.0965 44.3656 12.6955 44.5088 13.5093 44.5088C14.0041 44.5088 14.4533 44.4583 14.857 44.3574C15.2639 44.2565 15.5812 44.1165 15.8091 43.9375C16.0402 43.7617 16.1558 43.5632 16.1558 43.3418C16.1558 43.1562 16.0907 43.013 15.9605 42.9121C15.8335 42.8079 15.6154 42.7347 15.3062 42.6924L14.0366 42.502C13.6102 42.4401 13.2896 42.3001 13.0747 42.082C12.8631 41.8639 12.7573 41.6003 12.7573 41.291C12.7573 40.9362 12.8762 40.5944 13.1138 40.2656C13.3514 39.9368 13.6639 39.6732 14.0513 39.4746C14.4419 39.2728 14.8472 39.1719 15.2671 39.1719C15.8075 39.1719 16.2404 39.3151 16.5659 39.6016C16.8915 39.8848 17.1779 40.3617 17.4253 41.0322L17.5962 41.4912C17.7004 41.7777 17.8159 41.9681 17.9429 42.0625C18.0731 42.1536 18.2782 42.1992 18.5581 42.1992V42.7998L18.3579 43C17.9706 43 17.6776 42.9072 17.479 42.7217C17.2805 42.5329 17.0737 42.1553 16.8589 41.5889L16.688 41.1396C16.522 40.7132 16.3202 40.4121 16.0825 40.2363C15.8449 40.0573 15.5503 39.9678 15.1987 39.9678C14.7528 39.9678 14.3508 40.0898 13.9927 40.334C13.6346 40.5749 13.4556 40.8467 13.4556 41.1494C13.4556 41.3089 13.5174 41.4326 13.6411 41.5205C13.7648 41.6084 13.9634 41.6751 14.2368 41.7207L15.6284 41.9404C16.4487 42.0739 16.8589 42.5378 16.8589 43.332ZM14.5298 46.2568C14.6275 46.3545 14.6763 46.4749 14.6763 46.6182C14.6763 46.7614 14.6275 46.8818 14.5298 46.9795C14.4321 47.0804 14.3117 47.1309 14.1685 47.1309C14.0252 47.1309 13.9032 47.0804 13.8023 46.9795C13.7046 46.8818 13.6558 46.7614 13.6558 46.6182C13.6558 46.4749 13.7046 46.3545 13.8023 46.2568C13.9032 46.1592 14.0252 46.1104 14.1685 46.1104C14.3117 46.1104 14.4321 46.1592 14.5298 46.2568ZM13.2066 46.2568C13.3075 46.3545 13.3579 46.4749 13.3579 46.6182C13.3579 46.7614 13.3075 46.8818 13.2066 46.9795C13.1089 47.0804 12.9885 47.1309 12.8452 47.1309C12.702 47.1309 12.5816 47.0804 12.4839 46.9795C12.3862 46.8818 12.3374 46.7614 12.3374 46.6182C12.3374 46.4749 12.3862 46.3545 12.4839 46.2568C12.5816 46.1592 12.702 46.1104 12.8452 46.1104C12.9885 46.1104 13.1089 46.1592 13.2066 46.2568ZM18.3181 43H18.1179V42.3994L18.3181 42.1992C18.7771 42.1992 19.0945 42.0999 19.2703 41.9014C19.4493 41.7028 19.5388 41.3757 19.5388 40.9199C19.5388 40.4902 19.4819 39.8896 19.3679 39.1182H20.1004C20.1915 39.8018 20.2371 40.4023 20.2371 40.9199C20.2371 41.6361 20.0824 42.1618 19.7732 42.4971C19.464 42.8324 18.9789 43 18.3181 43ZM19.7879 43.9473C19.8888 44.0449 19.9392 44.1654 19.9392 44.3086C19.9392 44.4518 19.8888 44.5723 19.7879 44.6699C19.6902 44.7708 19.5698 44.8213 19.4265 44.8213C19.2833 44.8213 19.1629 44.7708 19.0652 44.6699C18.9675 44.5723 18.9187 44.4518 18.9187 44.3086C18.9187 44.1654 18.9675 44.0449 19.0652 43.9473C19.1629 43.8496 19.2833 43.8008 19.4265 43.8008C19.5698 43.8008 19.6902 43.8496 19.7879 43.9473ZM22.1943 43H21.4961V35.2705H22.1943V43Z" fill="#C1C1C1"/>
<path d="M16 30C16.3159 30 16.7582 29.7941 17.0743 29.5883C26.1106 23.6577 32 16.8139 32 9.82848C32 4.09091 28.12 0 23.0521 0C19.9557 0 17.4281 1.77531 16 4.50258C14.5845 1.78816 12.0569 0 8.94785 0C3.87994 0 0 4.09091 0 9.82848C0 16.8139 5.8894 23.6577 14.9384 29.5883C15.2543 29.7941 15.6967 30 16 30Z" fill="#C1C1C1"/>
</svg>
