<svg width="34" height="50" viewBox="0 0 34 50" fill="none" xmlns="http://www.w3.org/2000/svg">
<path d="M13.0501 28.0209V19.3775C13.0501 18.7514 13.467 18.3489 14.0981 18.3489H19.9132C20.5442 18.3489 20.9499 18.7514 20.9499 19.3775V28.0209H13.0501ZM4.30494 26.981C4.30494 28.8818 5.45442 30 7.39277 30H26.6072C28.5455 30 29.695 28.8818 29.695 26.981V14.9496L17.8846 5.12113C17.3099 4.62914 16.6563 4.6515 16.1041 5.12113L4.30494 14.9273V26.981ZM1.0706 14.905C1.40868 14.905 1.69042 14.726 1.93835 14.5136L16.4534 2.42638C16.6225 2.28103 16.814 2.21393 16.9944 2.21393C17.186 2.21393 17.3775 2.28103 17.5466 2.42638L32.0616 14.5136C32.3095 14.726 32.58 14.905 32.9294 14.905C33.5943 14.905 34 14.4242 34 13.9322C34 13.6303 33.8761 13.3395 33.5943 13.1047L18.6285 0.648527C18.1101 0.212449 17.5578 0 16.9944 0C16.4421 0 15.8899 0.212449 15.3715 0.648527L0.4057 13.1047C0.123964 13.3395 0 13.6303 0 13.9322C0 14.4242 0.394432 14.905 1.0706 14.905ZM26.6072 7.90533L29.9204 10.6783V4.31606C29.9204 3.75698 29.5486 3.39918 28.9851 3.39918H27.5539C26.9904 3.39918 26.6072 3.75698 26.6072 4.31606V7.90533Z" fill="#2A3F6F"/>
<path d="M7.32746 36.2178C7.42512 36.3154 7.47395 36.4359 7.47395 36.5791C7.47395 36.7223 7.42512 36.8444 7.32746 36.9453C7.2298 37.043 7.10936 37.0918 6.96613 37.0918C6.8229 37.0918 6.70083 37.043 6.59992 36.9453C6.50227 36.8444 6.45344 36.7223 6.45344 36.5791C6.45344 36.4359 6.50227 36.3154 6.59992 36.2178C6.70083 36.1201 6.8229 36.0713 6.96613 36.0713C7.10936 36.0713 7.2298 36.1201 7.32746 36.2178ZM6.00422 36.2178C6.10513 36.3154 6.15559 36.4359 6.15559 36.5791C6.15559 36.7223 6.10513 36.8444 6.00422 36.9453C5.90656 37.043 5.78612 37.0918 5.64289 37.0918C5.49966 37.0918 5.37922 37.043 5.28156 36.9453C5.18391 36.8444 5.13508 36.7223 5.13508 36.5791C5.13508 36.4359 5.18391 36.3154 5.28156 36.2178C5.37922 36.1201 5.49966 36.0713 5.64289 36.0713C5.78612 36.0713 5.90656 36.1201 6.00422 36.2178ZM8.73371 42.7998L8.53352 43C8.14289 43 7.84504 42.9186 7.63996 42.7559C7.43488 42.5898 7.29654 42.318 7.22492 41.9404C7.00357 42.5068 6.52994 42.79 5.80402 42.79C5.27994 42.79 4.86978 42.6484 4.57355 42.3652C4.28059 42.082 4.1341 41.6898 4.1341 41.1885C4.1341 40.8141 4.24803 40.4805 4.4759 40.1875C4.70702 39.8945 5.06672 39.6227 5.555 39.3721L7.13703 38.5518V37.7705H7.83527V41.1299C7.83527 41.5205 7.90363 41.7972 8.04035 41.96C8.17707 42.1195 8.40819 42.1992 8.73371 42.1992V42.7998ZM4.83723 41.1885C4.83723 41.4391 4.92186 41.6361 5.09113 41.7793C5.26366 41.9193 5.50129 41.9893 5.80402 41.9893C6.26301 41.9893 6.59992 41.9014 6.81477 41.7256C7.02961 41.5465 7.13703 41.265 7.13703 40.8809V39.2402L5.93586 39.8701C5.55826 40.0622 5.27994 40.264 5.1009 40.4756C4.92512 40.6839 4.83723 40.9215 4.83723 41.1885ZM11.4869 42.7998L11.2867 43C10.8537 43 10.5152 42.9235 10.2711 42.7705C10.0302 42.6175 9.87229 42.3799 9.79742 42.0576C9.65745 42.6859 9.15777 43 8.2984 43V42.3994L8.49859 42.1992C8.90875 42.1992 9.19846 42.0983 9.36773 41.8965C9.54026 41.6947 9.62652 41.3464 9.62652 40.8516V39.8213H10.3296V40.8516C10.3296 41.2324 10.3655 41.5189 10.4371 41.7109C10.5087 41.8997 10.6226 42.0283 10.7789 42.0967C10.9351 42.165 11.1711 42.1992 11.4869 42.1992V42.7998ZM10.7984 43.9473C10.8993 44.0449 10.9498 44.1654 10.9498 44.3086C10.9498 44.4518 10.8993 44.5723 10.7984 44.6699C10.7007 44.7708 10.5803 44.8213 10.4371 44.8213C10.2938 44.8213 10.1734 44.7708 10.0757 44.6699C9.97809 44.5723 9.92926 44.4518 9.92926 44.3086C9.92926 44.1654 9.97809 44.0449 10.0757 43.9473C10.1734 43.8496 10.2938 43.8008 10.4371 43.8008C10.5803 43.8008 10.7007 43.8496 10.7984 43.9473ZM9.48004 43.9473C9.5777 44.0449 9.62652 44.1654 9.62652 44.3086C9.62652 44.4518 9.5777 44.5723 9.48004 44.6699C9.38238 44.7708 9.26194 44.8213 9.11871 44.8213C8.97548 44.8213 8.85504 44.7708 8.75738 44.6699C8.65973 44.5723 8.6109 44.4518 8.6109 44.3086C8.6109 44.1654 8.65973 44.0449 8.75738 43.9473C8.85504 43.8496 8.97548 43.8008 9.11871 43.8008C9.26194 43.8008 9.38238 43.8496 9.48004 43.9473ZM19.118 43C18.7208 43 18.3969 42.917 18.1463 42.751C17.8956 42.585 17.7264 42.3506 17.6385 42.0479C17.5799 42.3962 17.448 42.6566 17.243 42.8291C17.0411 43.0016 16.7791 43.0879 16.4568 43.0879C16.1313 43.0879 15.8514 42.9984 15.617 42.8193C15.3826 42.6403 15.2264 42.3913 15.1482 42.0723C15.0376 42.7493 14.6437 43.0879 13.9666 43.0879C13.589 43.0879 13.2781 42.9984 13.034 42.8193C12.7898 42.637 12.6303 42.3799 12.5555 42.0479C12.4839 42.3734 12.3243 42.6143 12.077 42.7705C11.8296 42.9235 11.4861 43 11.0467 43V42.3994L11.2469 42.1992C11.6082 42.1992 11.8865 42.1048 12.0818 41.916C12.2771 41.7272 12.3748 41.4391 12.3748 41.0518L12.365 40.5195H13.0682L13.0779 41.0518C13.0779 41.4749 13.1577 41.7874 13.3172 41.9893C13.4799 42.1911 13.7306 42.292 14.0691 42.292C14.3426 42.292 14.5607 42.1895 14.7234 41.9844C14.8862 41.776 14.9676 41.4652 14.9676 41.0518L14.9578 40.5195H15.6561L15.6658 41.0518C15.6658 41.4619 15.7488 41.7712 15.9148 41.9795C16.0841 42.1878 16.3022 42.292 16.5691 42.292C16.8523 42.292 17.0704 42.1846 17.2234 41.9697C17.3797 41.7516 17.4578 41.4456 17.4578 41.0518V40.168H18.1561V41.0518C18.1561 41.4456 18.2488 41.7354 18.4344 41.9209C18.6232 42.1064 18.9178 42.1992 19.3182 42.1992V42.7998L19.118 43ZM22.0616 42.7998L21.8614 43C21.4284 43 21.0899 42.9235 20.8457 42.7705C20.6049 42.6175 20.447 42.3799 20.3721 42.0576C20.2321 42.6859 19.7325 43 18.8731 43V42.3994L19.0733 42.1992C19.4834 42.1992 19.7732 42.0983 19.9424 41.8965C20.1149 41.6947 20.2012 41.3464 20.2012 40.8516V39.8213H20.9043V40.8516C20.9043 41.2324 20.9401 41.5189 21.0118 41.7109C21.0834 41.8997 21.1973 42.0283 21.3536 42.0967C21.5098 42.165 21.7458 42.1992 22.0616 42.1992V42.7998ZM21.3731 43.9473C21.474 44.0449 21.5245 44.1654 21.5245 44.3086C21.5245 44.4518 21.474 44.5723 21.3731 44.6699C21.2754 44.7708 21.155 44.8213 21.0118 44.8213C20.8685 44.8213 20.7481 44.7708 20.6504 44.6699C20.5528 44.5723 20.5039 44.4518 20.5039 44.3086C20.5039 44.1654 20.5528 44.0449 20.6504 43.9473C20.7481 43.8496 20.8685 43.8008 21.0118 43.8008C21.155 43.8008 21.2754 43.8496 21.3731 43.9473ZM20.0547 43.9473C20.1524 44.0449 20.2012 44.1654 20.2012 44.3086C20.2012 44.4518 20.1524 44.5723 20.0547 44.6699C19.9571 44.7708 19.8366 44.8213 19.6934 44.8213C19.5502 44.8213 19.4297 44.7708 19.3321 44.6699C19.2344 44.5723 19.1856 44.4518 19.1856 44.3086C19.1856 44.1654 19.2344 44.0449 19.3321 43.9473C19.4297 43.8496 19.5502 43.8008 19.6934 43.8008C19.8366 43.8008 19.9571 43.8496 20.0547 43.9473ZM24.053 38.2588L22.0315 38.542V37.9414L22.554 37.8682C22.3261 37.7249 22.2122 37.515 22.2122 37.2383C22.2122 36.9974 22.2952 36.7956 22.4612 36.6328C22.6272 36.4701 22.8339 36.3887 23.0813 36.3887C23.3092 36.3887 23.4947 36.457 23.638 36.5938C23.7812 36.7305 23.8658 36.9193 23.8919 37.1602L23.4329 37.2188C23.358 37.0658 23.2311 36.9893 23.052 36.9893C22.9446 36.9893 22.8551 37.0202 22.7835 37.082C22.7151 37.1406 22.6809 37.2204 22.6809 37.3213C22.6809 37.471 22.7477 37.5898 22.8811 37.6777C23.0179 37.7624 23.1806 37.79 23.3694 37.7607L24.053 37.6582V38.2588ZM21.8216 43H21.6214V42.3994L21.8216 42.1992C22.2805 42.1992 22.5979 42.0999 22.7737 41.9014C22.9527 41.7028 23.0423 41.3757 23.0423 40.9199C23.0423 40.4902 22.9853 39.8896 22.8714 39.1182H23.6038C23.6949 39.8018 23.7405 40.4023 23.7405 40.9199C23.7405 41.6361 23.5859 42.1618 23.2766 42.4971C22.9674 42.8324 22.4824 43 21.8216 43ZM27.3189 43C26.8599 43 26.5132 42.8405 26.2788 42.5215C26.217 43.4069 26.0021 44.0921 25.6343 44.5771C25.2697 45.0654 24.7847 45.3096 24.1792 45.3096C23.8797 45.3096 23.5868 45.2835 23.3003 45.2314V44.4307C23.6193 44.4827 23.896 44.5088 24.1304 44.5088C24.6252 44.5088 25.0126 44.3037 25.2925 43.8936C25.5724 43.4867 25.7124 42.9186 25.7124 42.1895C25.7124 41.3952 25.6392 40.6058 25.4927 39.8213H26.1714L26.3716 41.1592C26.4139 41.5173 26.5311 41.7809 26.7232 41.9502C26.9152 42.1162 27.1805 42.1992 27.5191 42.1992V42.7998L27.3189 43ZM27.3767 43H27.0789V42.3994L27.2791 42.1992C27.5199 42.1992 27.712 42.1797 27.8552 42.1406C27.9985 42.0983 28.1157 42.0169 28.2068 41.8965C28.2979 41.776 28.3598 41.6198 28.3923 41.4277C28.4249 41.2357 28.4412 40.9769 28.4412 40.6514V35.2705H29.1394V40.8516C29.1394 41.5872 28.9962 42.1292 28.7097 42.4775C28.4233 42.8258 27.9789 43 27.3767 43ZM31.1943 43H30.4961V35.2705H31.1943V43Z" fill="#2A3F6F"/>
</svg>
