<svg width="30" height="48" viewBox="0 0 30 48" fill="none" xmlns="http://www.w3.org/2000/svg">
<path d="M10.3216 42.6289C10.774 42.8405 11.0003 43.1742 11.0003 43.6299C11.0003 44.0856 10.6943 44.4795 10.0823 44.8115C9.47358 45.1436 8.68256 45.3096 7.70926 45.3096C5.46316 45.3096 4.34012 44.5023 4.34012 42.8877C4.34012 42.5361 4.39383 42.0804 4.50125 41.5205H5.19949C5.09207 42.0706 5.03836 42.4775 5.03836 42.7412C5.03836 43.3304 5.25483 43.7715 5.68777 44.0645C6.12072 44.3607 6.79454 44.5088 7.70926 44.5088C8.52631 44.5088 9.16108 44.4144 9.61355 44.2256C10.0693 44.04 10.2971 43.7812 10.2971 43.4492C10.2971 43.2637 10.219 43.0977 10.0628 42.9512C9.90978 42.8047 9.66238 42.7314 9.32059 42.7314H8.23172V41.9307H9.33035C9.80236 41.9307 10.1214 41.8525 10.2874 41.6963C10.4567 41.54 10.5413 41.2812 10.5413 40.9199C10.5413 40.4902 10.4843 39.8896 10.3704 39.1182H11.0979C11.1923 39.8245 11.2395 40.4251 11.2395 40.9199C11.2395 41.3919 11.1647 41.7679 11.0149 42.0479C10.8652 42.3245 10.6341 42.5182 10.3216 42.6289ZM10.6585 45.8955C10.7594 45.9964 10.8098 46.1185 10.8098 46.2617C10.8098 46.4049 10.7594 46.5254 10.6585 46.623C10.5608 46.7207 10.4404 46.7695 10.2971 46.7695C10.1539 46.7695 10.0335 46.7207 9.93582 46.623C9.83816 46.5254 9.78934 46.4049 9.78934 46.2617C9.78934 46.1185 9.83816 45.9964 9.93582 45.8955C10.0335 45.7979 10.1539 45.749 10.2971 45.749C10.4404 45.749 10.5608 45.7979 10.6585 45.8955ZM8.72976 46.2568C8.83068 46.3545 8.88113 46.4749 8.88113 46.6182C8.88113 46.7614 8.83068 46.8818 8.72976 46.9795C8.63211 47.0804 8.51167 47.1309 8.36844 47.1309C8.22521 47.1309 8.10476 47.0804 8.00711 46.9795C7.90945 46.8818 7.86062 46.7614 7.86062 46.6182C7.86062 46.4749 7.90945 46.3545 8.00711 46.2568C8.10476 46.1592 8.22521 46.1104 8.36844 46.1104C8.51167 46.1104 8.63211 46.1592 8.72976 46.2568ZM7.41141 46.2568C7.50906 46.3545 7.55789 46.4749 7.55789 46.6182C7.55789 46.7614 7.50906 46.8818 7.41141 46.9795C7.31375 47.0804 7.19331 47.1309 7.05008 47.1309C6.90685 47.1309 6.78478 47.0804 6.68387 46.9795C6.58621 46.8818 6.53738 46.7614 6.53738 46.6182C6.53738 46.4749 6.58621 46.3545 6.68387 46.2568C6.78478 46.1592 6.90685 46.1104 7.05008 46.1104C7.19331 46.1104 7.31375 46.1592 7.41141 46.2568ZM13.9536 43H13.9048C13.3514 43 12.9445 42.8356 12.6841 42.5068C12.4237 42.1748 12.2935 41.6556 12.2935 40.9492V35.2705H12.9966V40.9492C12.9966 41.4147 13.0812 41.7402 13.2505 41.9258C13.423 42.1081 13.7241 42.1992 14.1538 42.1992V42.7998L13.9536 43ZM21.7849 43C21.3878 43 21.0639 42.917 20.8132 42.751C20.5626 42.585 20.3933 42.3506 20.3054 42.0479C20.2468 42.3962 20.115 42.6566 19.9099 42.8291C19.7081 43.0016 19.4461 43.0879 19.1238 43.0879C18.7983 43.0879 18.5183 42.9984 18.2839 42.8193C18.0496 42.6403 17.8933 42.3913 17.8152 42.0723C17.7045 42.7493 17.3106 43.0879 16.6336 43.0879C16.256 43.0879 15.9451 42.9984 15.7009 42.8193C15.4568 42.637 15.2973 42.3799 15.2224 42.0479C15.1508 42.3734 14.9913 42.6143 14.7439 42.7705C14.4965 42.9235 14.1531 43 13.7136 43V42.3994L13.9138 42.1992C14.2752 42.1992 14.5535 42.1048 14.7488 41.916C14.9441 41.7272 15.0418 41.4391 15.0418 41.0518L15.032 40.5195H15.7351L15.7449 41.0518C15.7449 41.4749 15.8246 41.7874 15.9841 41.9893C16.1469 42.1911 16.3976 42.292 16.7361 42.292C17.0095 42.292 17.2276 42.1895 17.3904 41.9844C17.5532 41.776 17.6345 41.4652 17.6345 41.0518L17.6248 40.5195H18.323L18.3328 41.0518C18.3328 41.4619 18.4158 41.7712 18.5818 41.9795C18.7511 42.1878 18.9692 42.292 19.2361 42.292C19.5193 42.292 19.7374 42.1846 19.8904 41.9697C20.0466 41.7516 20.1248 41.4456 20.1248 41.0518V40.168H20.823V41.0518C20.823 41.4456 20.9158 41.7354 21.1013 41.9209C21.2901 42.1064 21.5847 42.1992 21.9851 42.1992V42.7998L21.7849 43ZM22.3213 43H21.54V42.3994L21.7402 42.1992H22.3213C22.8063 42.1992 23.2051 42.1602 23.5176 42.082C23.8301 42.0007 24.2142 41.8395 24.6699 41.5986L25.3486 41.2422C25.736 41.0436 26.0094 40.9134 26.1689 40.8516C25.8923 40.7799 25.5456 40.653 25.1289 40.4707L24.2402 40.0801C23.8431 39.9076 23.529 39.8213 23.2979 39.8213C23.1449 39.8213 23.0212 39.8652 22.9268 39.9531C22.8356 40.041 22.777 40.1631 22.751 40.3193H22.0479C22.0771 39.9092 22.2008 39.5902 22.4189 39.3623C22.6403 39.1344 22.9382 39.0205 23.3125 39.0205C23.4915 39.0205 23.6738 39.0465 23.8594 39.0986C24.0482 39.1475 24.2891 39.2354 24.582 39.3623L25.4707 39.748C25.9915 39.9759 26.3805 40.1289 26.6377 40.207C26.8981 40.2819 27.1618 40.3193 27.4287 40.3193H27.8193V41.0713H27.4287C27.2074 41.0713 26.9746 41.1217 26.7305 41.2227C26.4863 41.3236 26.1104 41.5254 25.6025 41.8281L24.9727 42.1992C24.4323 42.5182 23.9847 42.7314 23.6299 42.8389C23.2783 42.9463 22.8421 43 22.3213 43Z" fill="#C1C1C1"/>
<path d="M30 14.9943C30 23.2629 23.263 30 14.9942 30C6.73703 30 0 23.2629 0 14.9943C0 6.73704 6.73703 0 14.9942 0C23.263 0 30 6.73704 30 14.9943ZM7.16314 21.8925C7.16314 22.3993 7.41649 22.7562 7.96927 22.7562H22.0192C22.5835 22.7562 22.8253 22.3993 22.8253 21.8925C22.8253 20.2227 20.3262 15.835 14.9942 15.835C9.67368 15.835 7.16314 20.2227 7.16314 21.8925ZM11.1017 10.3301C11.1017 12.76 12.8407 14.5796 14.9942 14.5912C17.1477 14.6026 18.8867 12.76 18.8867 10.3301C18.8867 8.06142 17.1477 6.17275 14.9942 6.17275C12.8407 6.17275 11.1017 8.06142 11.1017 10.3301Z" fill="#C1C1C1"/>
</svg>
