<svg width="32" height="48" viewBox="0 0 32 48" fill="none" xmlns="http://www.w3.org/2000/svg">
<path d="M6.52617 40.3711C6.62383 40.4688 6.67266 40.5892 6.67266 40.7324C6.67266 40.8757 6.62383 40.9961 6.52617 41.0938C6.42852 41.1914 6.30807 41.2402 6.16484 41.2402C6.02162 41.2402 5.89955 41.1914 5.79863 41.0938C5.70098 40.9961 5.65215 40.8757 5.65215 40.7324C5.65215 40.5892 5.70098 40.4688 5.79863 40.3711C5.89955 40.2702 6.02162 40.2197 6.16484 40.2197C6.30807 40.2197 6.42852 40.2702 6.52617 40.3711ZM5.20781 40.3711C5.30547 40.4688 5.3543 40.5892 5.3543 40.7324C5.3543 40.8757 5.30547 40.9961 5.20781 41.0938C5.11016 41.1914 4.98971 41.2402 4.84649 41.2402C4.70326 41.2402 4.58119 41.1914 4.48027 41.0938C4.38262 40.9961 4.33379 40.8757 4.33379 40.7324C4.33379 40.5892 4.38262 40.4688 4.48027 40.3711C4.58119 40.2702 4.70326 40.2197 4.84649 40.2197C4.98971 40.2197 5.11016 40.2702 5.20781 40.3711ZM9.2166 42.9199C9.2166 43.6816 8.91224 44.2334 8.30352 44.5752C7.69479 44.917 6.71172 45.0879 5.3543 45.0879C4.09779 45.0879 3.18796 44.9072 2.62481 44.5459C2.06491 44.1846 1.78496 43.5986 1.78496 42.7881C1.78496 42.2965 1.84193 41.8571 1.95586 41.4697H2.6541C2.54017 41.9613 2.4832 42.3519 2.4832 42.6416C2.4832 43.221 2.70781 43.641 3.15703 43.9014C3.60951 44.1618 4.34193 44.292 5.3543 44.292C6.16159 44.292 6.78822 44.2497 7.23418 44.165C7.6834 44.0804 8.00892 43.9404 8.21074 43.7451C8.41257 43.5498 8.51348 43.2747 8.51348 42.9199C8.51348 42.5065 8.46302 41.9059 8.36211 41.1182H9.11406C9.18242 41.779 9.2166 42.3796 9.2166 42.9199ZM11.9356 45H11.8868C11.3334 45 10.9265 44.8356 10.6661 44.5068C10.4056 44.1748 10.2754 43.6556 10.2754 42.9492V37.2705H10.9786V42.9492C10.9786 43.4147 11.0632 43.7402 11.2325 43.9258C11.405 44.1081 11.7061 44.1992 12.1358 44.1992V44.7998L11.9356 45ZM17.1546 43.1787C17.1546 43.7809 16.9869 44.2497 16.6516 44.585C16.3196 44.9202 15.8541 45.0879 15.2552 45.0879C14.4739 45.0879 13.8375 44.8193 13.346 44.2822C13.1572 44.5459 12.9374 44.7314 12.6868 44.8389C12.4394 44.9463 12.109 45 11.6956 45V44.3994L11.8958 44.1992C12.1432 44.1992 12.3417 44.1634 12.4915 44.0918C12.6412 44.0169 12.7698 43.8997 12.8772 43.7402C12.9846 43.5775 13.1116 43.3236 13.2581 42.9785L13.3655 42.7197C13.6129 42.124 13.8863 41.6927 14.1858 41.4258C14.4853 41.1556 14.8613 41.0205 15.3138 41.0205C15.8378 41.0205 16.2757 41.2272 16.6272 41.6406C16.9788 42.0508 17.1546 42.5635 17.1546 43.1787ZM13.888 43.2324C13.8489 43.3236 13.7887 43.4554 13.7073 43.6279C13.9091 43.8363 14.1435 43.999 14.4104 44.1162C14.6806 44.2334 14.9589 44.292 15.2454 44.292C15.6555 44.292 15.9599 44.2025 16.1585 44.0234C16.357 43.8411 16.4563 43.5596 16.4563 43.1787C16.4563 42.7881 16.3424 42.4642 16.1145 42.207C15.8899 41.9499 15.61 41.8213 15.2747 41.8213C14.985 41.8213 14.7441 41.9076 14.552 42.0801C14.36 42.2493 14.1744 42.5456 13.9954 42.9688L13.888 43.2324ZM22.9155 44.7998L22.7154 45C22.4321 45 22.1978 44.943 22.0122 44.8291C21.8299 44.7152 21.6655 44.528 21.5191 44.2676C21.2098 44.528 20.8631 44.7314 20.479 44.8779C20.0982 45.0212 19.7141 45.0911 19.3267 45.0879C18.757 45.0814 18.3371 44.9528 18.0669 44.7021C17.8 44.4482 17.6665 44.0544 17.6665 43.5205H18.3696C18.3696 43.7939 18.4413 43.9909 18.5845 44.1113C18.7277 44.2318 18.9751 44.292 19.3267 44.292C19.6848 44.292 20.0314 44.2415 20.3667 44.1406C20.7053 44.0397 21.0015 43.8965 21.2554 43.7109C21.2489 43.6849 21.2326 43.6377 21.2066 43.5693L19.9468 40.1904H20.728L21.9097 43.3398C22.0301 43.6654 22.1571 43.89 22.2905 44.0137C22.4273 44.1374 22.6356 44.1992 22.9155 44.1992V44.7998ZM23.2566 45H22.4754V44.3994L22.6755 44.1992H23.2566C23.7416 44.1992 24.1404 44.1602 24.4529 44.082C24.7654 44.0007 25.1495 43.8395 25.6052 43.5986L26.2839 43.2422C26.5379 43.1055 26.7852 42.9883 27.0261 42.8906C27.0001 42.8874 26.8536 42.8597 26.5867 42.8076L25.5173 42.5781C25.169 42.5065 24.6287 42.4707 23.8963 42.4707H23.1834V41.6699H24.0964C24.3015 41.6699 24.4773 41.6618 24.6238 41.6455C24.7703 41.626 24.9005 41.5918 25.0144 41.543C25.1316 41.4941 25.226 41.4339 25.2976 41.3623C25.3692 41.2907 25.4278 41.1947 25.4734 41.0742C25.519 40.9538 25.5499 40.8187 25.5662 40.6689C25.5857 40.5192 25.5955 40.3369 25.5955 40.1221V37.2705H26.2937V40.3223C26.2937 40.7357 26.2547 41.0661 26.1765 41.3135C26.1017 41.5609 25.9714 41.7497 25.7859 41.8799L26.7332 42.0898C27.4233 42.2428 27.9848 42.3193 28.4177 42.3193H28.7547V43.0713H28.364C28.1427 43.0713 27.9099 43.1217 27.6658 43.2227C27.4216 43.3236 27.0457 43.5254 26.5379 43.8281L25.908 44.1992C25.3676 44.5182 24.92 44.7314 24.5652 44.8389C24.2136 44.9463 23.7774 45 23.2566 45ZM24.155 39.4678C24.256 39.5654 24.3064 39.6859 24.3064 39.8291C24.3064 39.9723 24.256 40.0944 24.155 40.1953C24.0574 40.293 23.9369 40.3418 23.7937 40.3418C23.6505 40.3418 23.53 40.293 23.4324 40.1953C23.3347 40.0944 23.2859 39.9723 23.2859 39.8291C23.2859 39.6859 23.3347 39.5654 23.4324 39.4678C23.53 39.3701 23.6505 39.3213 23.7937 39.3213C23.9369 39.3213 24.0574 39.3701 24.155 39.4678ZM30.1943 45H29.4961V37.2705H30.1943V45Z" fill="#C1C1C1"/>
<path d="M2.18698 9.74383H29.8131C30.5043 9.74383 30.8896 9.25322 30.8896 8.73979C30.8896 8.36327 30.6856 8.03239 30.2323 7.76997L17.7111 0.490615C17.1559 0.171144 16.5665 0 16.0001 0C15.4221 0 14.8215 0.171144 14.289 0.490615L1.76771 7.76997C1.30312 8.03239 1.11048 8.36327 1.11048 8.73979C1.11048 9.25322 1.49575 9.74383 2.18698 9.74383ZM3.18414 12.5506H7.04817C7.51276 12.5506 7.7847 12.2882 7.7847 11.8204V11.6036C7.7847 11.1472 7.51276 10.8734 7.04817 10.8734H3.18414C2.70821 10.8734 2.43626 11.1472 2.43626 11.6036V11.8204C2.43626 12.2882 2.70821 12.5506 3.18414 12.5506ZM4.15864 26.5845H6.05099V12.1398H4.15864V26.5845ZM3.18414 27.851H7.04817C7.51276 27.851 7.7847 27.5771 7.7847 27.1093V26.9039C7.7847 26.4475 7.51276 26.1851 7.04817 26.1851H3.18414C2.70821 26.1851 2.43626 26.4475 2.43626 26.9039V27.1093C2.43626 27.5771 2.70821 27.851 3.18414 27.851ZM10.4363 12.5506H14.3003C14.7762 12.5506 15.0482 12.2882 15.0482 11.8204V11.6036C15.0482 11.1472 14.7762 10.8734 14.3003 10.8734H10.4363C9.97168 10.8734 9.69973 11.1472 9.69973 11.6036V11.8204C9.69973 12.2882 9.97168 12.5506 10.4363 12.5506ZM11.4221 26.5845H13.3144V12.1398H11.4221V26.5845ZM10.4363 27.851H14.3003C14.7762 27.851 15.0482 27.5771 15.0482 27.1093V26.9039C15.0482 26.4475 14.7762 26.1851 14.3003 26.1851H10.4363C9.97168 26.1851 9.69973 26.4475 9.69973 26.9039V27.1093C9.69973 27.5771 9.97168 27.851 10.4363 27.851ZM17.6997 12.5506H21.5638C22.0284 12.5506 22.3004 12.2882 22.3004 11.8204V11.6036C22.3004 11.1472 22.0284 10.8734 21.5638 10.8734H17.6997C17.2351 10.8734 16.9631 11.1472 16.9631 11.6036V11.8204C16.9631 12.2882 17.2351 12.5506 17.6997 12.5506ZM18.6969 26.5845H20.5892V12.1398H18.6969V26.5845ZM17.6997 27.851H21.5638C22.0284 27.851 22.3004 27.5771 22.3004 27.1093V26.9039C22.3004 26.4475 22.0284 26.1851 21.5638 26.1851H17.6997C17.2351 26.1851 16.9631 26.4475 16.9631 26.9039V27.1093C16.9631 27.5771 17.2351 27.851 17.6997 27.851ZM24.9632 12.5506H28.8273C29.2918 12.5506 29.5637 12.2882 29.5637 11.8204V11.6036C29.5637 11.1472 29.2918 10.8734 28.8273 10.8734H24.9632C24.4986 10.8734 24.2266 11.1472 24.2266 11.6036V11.8204C24.2266 12.2882 24.4986 12.5506 24.9632 12.5506ZM25.9603 26.5845H27.8527V12.1398H25.9603V26.5845ZM24.9632 27.851H28.8273C29.2918 27.851 29.5637 27.5771 29.5637 27.1093V26.9039C29.5637 26.4475 29.2918 26.1851 28.8273 26.1851H24.9632C24.4986 26.1851 24.2266 26.4475 24.2266 26.9039V27.1093C24.2266 27.5771 24.4986 27.851 24.9632 27.851ZM1.0085 31H30.9915C31.5468 31 32 30.5436 32 29.9959C32 29.4369 31.5468 28.9805 30.9915 28.9805H1.0085C0.453258 28.9805 0 29.4369 0 29.9959C0 30.5436 0.453258 31 1.0085 31Z" fill="#C1C1C1"/>
</svg>
