<svg width="32" height="47" viewBox="0 0 32 47" fill="none" xmlns="http://www.w3.org/2000/svg">
<path d="M18.4321 1.23012L20.7262 3.43124C20.9578 3.64493 21.1784 3.73042 21.4762 3.73042H24.697C27.0904 3.73042 28.1603 4.77755 28.1603 7.07484V10.1949C28.1603 10.494 28.2374 10.7077 28.458 10.9214L30.7302 13.1439C32.4177 14.768 32.4288 16.2319 30.7302 17.8667L28.458 20.0785C28.2374 20.3029 28.1603 20.5166 28.1603 20.8158V23.9252C28.1603 26.2438 27.0793 27.2803 24.697 27.2803H21.4762C21.1784 27.2803 20.9578 27.355 20.7262 27.5794L18.4321 29.7699C16.7555 31.4047 15.2444 31.4154 13.5679 29.7699L11.2737 27.5794C11.0532 27.355 10.8326 27.2803 10.5237 27.2803H7.30306C4.92063 27.2803 3.85076 26.2331 3.85076 23.9252V20.8158C3.85076 20.5166 3.76251 20.3029 3.54192 20.0785L1.2698 17.8667C-0.417747 16.2319 -0.428777 14.768 1.2698 13.1439L3.54192 10.9214C3.76251 10.7077 3.85076 10.494 3.85076 10.1949V7.07484C3.85076 4.75618 4.92063 3.73042 7.30306 3.73042H10.5237C10.8326 3.73042 11.0532 3.64493 11.2737 3.43124L13.5569 1.23012C15.2444 -0.404692 16.7555 -0.415378 18.4321 1.23012ZM20.7593 10.0025L14.3841 19.8221L11.2076 15.9862C10.9208 15.6015 10.6451 15.4839 10.2921 15.4839C9.74062 15.4839 9.32149 15.922 9.32149 16.4563C9.32149 16.7234 9.43178 16.9906 9.60826 17.2256L13.3694 21.6278C13.6893 22.0338 14.0201 22.1941 14.4392 22.1941C14.8474 22.1941 15.1893 22.0018 15.443 21.6278L22.3586 11.1351C22.502 10.9001 22.6564 10.6223 22.6564 10.3658C22.6564 9.82088 22.1601 9.46828 21.6306 9.46828C21.2997 9.46828 20.9909 9.64992 20.7593 10.0025Z" fill="#C1C1C1"/>
<path d="M7.96148 44C7.38857 44 7.00445 43.8226 6.80914 43.4678C6.80263 44.262 6.58616 44.8675 6.15973 45.2842C5.73329 45.7008 5.10667 45.9092 4.27984 45.9092C3.33583 45.9092 2.6441 45.6829 2.20465 45.2305C1.7652 44.778 1.55035 44.1204 1.56012 43.2578C1.56988 42.8314 1.62359 42.3691 1.72125 41.8711H2.41949C2.32184 42.3887 2.26813 42.8021 2.25836 43.1113C2.24859 43.7884 2.39833 44.2897 2.70758 44.6152C3.01682 44.944 3.54091 45.1084 4.27984 45.1084C4.97971 45.1084 5.49078 44.9635 5.81305 44.6738C6.13857 44.3874 6.30133 43.9268 6.30133 43.292V36.2705H6.99957V41.8516C6.99957 42.138 7.01585 42.3675 7.0484 42.54C7.08421 42.7093 7.14931 42.8444 7.24371 42.9453C7.34137 43.0462 7.45856 43.1146 7.59527 43.1504C7.73525 43.1829 7.92405 43.1992 8.16168 43.1992V43.7998L7.96148 44ZM10.9051 43.7998L10.7049 44C10.2719 44 9.9334 43.9235 9.68926 43.7705C9.44837 43.6175 9.2905 43.3799 9.21563 43.0576C9.07565 43.6859 8.57598 44 7.7166 44V43.3994L7.9168 43.1992C8.32695 43.1992 8.61667 43.0983 8.78594 42.8965C8.95846 42.6947 9.04473 42.3464 9.04473 41.8516V40.8213H9.74785V41.8516C9.74785 42.2324 9.78366 42.5189 9.85527 42.7109C9.92689 42.8997 10.0408 43.0283 10.1971 43.0967C10.3533 43.165 10.5893 43.1992 10.9051 43.1992V43.7998ZM10.2166 44.9473C10.3175 45.0449 10.368 45.1654 10.368 45.3086C10.368 45.4518 10.3175 45.5723 10.2166 45.6699C10.1189 45.7708 9.9985 45.8213 9.85527 45.8213C9.71205 45.8213 9.5916 45.7708 9.49395 45.6699C9.39629 45.5723 9.34746 45.4518 9.34746 45.3086C9.34746 45.1654 9.39629 45.0449 9.49395 44.9473C9.5916 44.8496 9.71205 44.8008 9.85527 44.8008C9.9985 44.8008 10.1189 44.8496 10.2166 44.9473ZM8.89824 44.9473C8.9959 45.0449 9.04473 45.1654 9.04473 45.3086C9.04473 45.4518 8.9959 45.5723 8.89824 45.6699C8.80059 45.7708 8.68014 45.8213 8.53691 45.8213C8.39369 45.8213 8.27324 45.7708 8.17559 45.6699C8.07793 45.5723 8.0291 45.4518 8.0291 45.3086C8.0291 45.1654 8.07793 45.0449 8.17559 44.9473C8.27324 44.8496 8.39369 44.8008 8.53691 44.8008C8.68014 44.8008 8.80059 44.8496 8.89824 44.9473ZM11.2461 44H10.4649V43.3994L10.6651 43.1992H11.2461C11.7312 43.1992 12.1299 43.1602 12.4424 43.082C12.7549 43.0007 13.139 42.8395 13.5948 42.5986L14.2735 42.2422C14.6608 42.0436 14.9343 41.9134 15.0938 41.8516C14.8171 41.7799 14.4704 41.653 14.0538 41.4707L13.1651 41.0801C12.7679 40.9076 12.4538 40.8213 12.2227 40.8213C12.0697 40.8213 11.946 40.8652 11.8516 40.9531C11.7605 41.041 11.7019 41.1631 11.6758 41.3193H10.9727C11.002 40.9092 11.1257 40.5902 11.3438 40.3623C11.5651 40.1344 11.863 40.0205 12.2373 40.0205C12.4164 40.0205 12.5987 40.0465 12.7842 40.0986C12.973 40.1475 13.2139 40.2354 13.5069 40.3623L14.3955 40.748C14.9164 40.9759 15.3054 41.1289 15.5625 41.207C15.823 41.2819 16.0866 41.3193 16.3536 41.3193H16.7442V42.0713H16.3536C16.2103 42.0713 16.0801 42.0876 15.9629 42.1201V42.3398C15.9629 42.6328 16.0427 42.8493 16.2022 42.9893C16.3649 43.1292 16.6123 43.1992 16.9444 43.1992V43.7998L16.7442 44C16.2364 44 15.862 43.8698 15.6211 43.6094C15.3835 43.3457 15.2647 42.9453 15.2647 42.4082C14.8643 42.6328 14.6185 42.7728 14.5274 42.8281L13.8975 43.1992C13.3571 43.5182 12.9095 43.7314 12.5547 43.8389C12.2032 43.9463 11.767 44 11.2461 44ZM14.2051 44.9473C14.306 45.0449 14.3565 45.1654 14.3565 45.3086C14.3565 45.4518 14.306 45.5723 14.2051 45.6699C14.1075 45.7708 13.987 45.8213 13.8438 45.8213C13.7006 45.8213 13.5801 45.7708 13.4825 45.6699C13.3848 45.5723 13.336 45.4518 13.336 45.3086C13.336 45.1654 13.3848 45.0449 13.4825 44.9473C13.5801 44.8496 13.7006 44.8008 13.8438 44.8008C13.987 44.8008 14.1075 44.8496 14.2051 44.9473ZM24.5755 44C24.1783 44 23.8544 43.917 23.6038 43.751C23.3531 43.585 23.1839 43.3506 23.096 43.0479C23.0374 43.3962 22.9055 43.6566 22.7005 43.8291C22.4986 44.0016 22.2366 44.0879 21.9143 44.0879C21.5888 44.0879 21.3089 43.9984 21.0745 43.8193C20.8401 43.6403 20.6839 43.3913 20.6057 43.0723C20.4951 43.7493 20.1012 44.0879 19.4241 44.0879C19.0465 44.0879 18.7356 43.9984 18.4915 43.8193C18.2473 43.637 18.0878 43.3799 18.013 43.0479C17.9414 43.3734 17.7819 43.6143 17.5345 43.7705C17.2871 43.9235 16.9436 44 16.5042 44V43.3994L16.7044 43.1992C17.0657 43.1992 17.344 43.1048 17.5393 42.916C17.7346 42.7272 17.8323 42.4391 17.8323 42.0518L17.8225 41.5195H18.5257L18.5354 42.0518C18.5354 42.4749 18.6152 42.7874 18.7747 42.9893C18.9374 43.1911 19.1881 43.292 19.5266 43.292C19.8001 43.292 20.0182 43.1895 20.1809 42.9844C20.3437 42.776 20.4251 42.4652 20.4251 42.0518L20.4153 41.5195H21.1136L21.1233 42.0518C21.1233 42.4619 21.2063 42.7712 21.3723 42.9795C21.5416 43.1878 21.7597 43.292 22.0266 43.292C22.3098 43.292 22.5279 43.1846 22.6809 42.9697C22.8372 42.7516 22.9153 42.4456 22.9153 42.0518V41.168H23.6136V42.0518C23.6136 42.4456 23.7063 42.7354 23.8919 42.9209C24.0807 43.1064 24.3753 43.1992 24.7757 43.1992V43.7998L24.5755 44ZM27.0405 39.2686C27.1415 39.3662 27.1919 39.4867 27.1919 39.6299C27.1919 39.7731 27.1415 39.8936 27.0405 39.9912C26.9429 40.0889 26.8224 40.1377 26.6792 40.1377C26.536 40.1377 26.4155 40.0889 26.3179 39.9912C26.2202 39.8936 26.1714 39.7731 26.1714 39.6299C26.1714 39.4867 26.2202 39.3662 26.3179 39.2686C26.4155 39.1709 26.536 39.1221 26.6792 39.1221C26.8224 39.1221 26.9429 39.1709 27.0405 39.2686ZM25.7222 39.2686C25.8198 39.3662 25.8687 39.4867 25.8687 39.6299C25.8687 39.7731 25.8198 39.8936 25.7222 39.9912C25.6245 40.0889 25.5041 40.1377 25.3609 40.1377C25.2176 40.1377 25.0972 40.0889 24.9995 39.9912C24.9019 39.8936 24.853 39.7731 24.853 39.6299C24.853 39.4867 24.9019 39.3662 24.9995 39.2686C25.0972 39.1709 25.2176 39.1221 25.3609 39.1221C25.5041 39.1221 25.6245 39.1709 25.7222 39.2686ZM27.5191 43.7998L27.3189 44C26.8859 44 26.5474 43.9235 26.3032 43.7705C26.0624 43.6175 25.9045 43.3799 25.8296 43.0576C25.6896 43.6859 25.19 44 24.3306 44V43.3994L24.5308 43.1992C24.9409 43.1992 25.2307 43.0983 25.3999 42.8965C25.5724 42.6947 25.6587 42.3464 25.6587 41.8516V40.8213H26.3618V41.8516C26.3618 42.2324 26.3976 42.5189 26.4693 42.7109C26.5409 42.8997 26.6548 43.0283 26.8111 43.0967C26.9673 43.165 27.2033 43.1992 27.5191 43.1992V43.7998ZM27.3767 44H27.0789V43.3994L27.2791 43.1992C27.5199 43.1992 27.712 43.1797 27.8552 43.1406C27.9985 43.0983 28.1157 43.0169 28.2068 42.8965C28.2979 42.776 28.3598 42.6198 28.3923 42.4277C28.4249 42.2357 28.4412 41.9769 28.4412 41.6514V36.2705H29.1394V41.8516C29.1394 42.5872 28.9962 43.1292 28.7097 43.4775C28.4233 43.8258 27.9789 44 27.3767 44ZM31.1943 44H30.4961V36.2705H31.1943V44Z" fill="#C1C1C1"/>
</svg>
