<svg width="19" height="24" viewBox="0 0 19 24" fill="none" xmlns="http://www.w3.org/2000/svg">
<path d="M4.79332 15.2978H14.2537C14.5435 15.2978 14.7628 15.0779 14.7628 14.8044C14.7628 14.5335 14.5435 14.3197 14.2537 14.3197H4.79332C4.49741 14.3197 4.27805 14.5335 4.27805 14.8044C4.27805 15.0779 4.49741 15.2978 4.79332 15.2978ZM4.79332 18.7811H9.37296C9.66539 18.7811 9.88478 18.57 9.88478 18.3025C9.88478 18.0289 9.66539 17.8118 9.37296 17.8118H4.79332C4.49741 17.8118 4.27805 18.0289 4.27805 18.3025C4.27805 18.57 4.49741 18.7811 4.79332 18.7811ZM6.82746 11.3259H7.8722C7.97317 11.3259 8.03327 11.3636 8.1107 11.4276L8.85469 12.1412C9.30076 12.5935 9.71157 12.5901 10.1577 12.1412L10.9017 11.4276C10.9792 11.3696 11.0358 11.3259 11.1519 11.3259H12.1788C12.823 11.3259 13.1075 11.052 13.1075 10.4268V9.41405C13.1075 9.31562 13.131 9.24893 13.2029 9.17344L13.9413 8.45383C14.393 8.00762 14.393 7.62749 13.9413 7.17856L13.2029 6.46164C13.131 6.39494 13.1075 6.31947 13.1075 6.22107V5.20835C13.1075 4.5831 12.8293 4.30926 12.1788 4.30926H11.1519C11.0358 4.30926 10.9792 4.27152 10.9017 4.20481L10.1577 3.49395C9.6998 3.04501 9.30075 3.05105 8.84911 3.49395L8.1107 4.20481C8.03883 4.28299 7.97317 4.30926 7.8722 4.30926H6.82746C6.18867 4.30926 5.89869 4.57706 5.89869 5.20835V6.22107C5.89869 6.31947 5.87516 6.39494 5.80949 6.46164L5.07107 7.17856C4.61321 7.62749 4.61321 8.00762 5.07107 8.45383L5.80949 9.17344C5.87516 9.24893 5.89869 9.31562 5.89869 9.41405V10.4268C5.89869 11.052 6.18867 11.3259 6.82746 11.3259ZM9.03318 9.99604C8.88819 9.99604 8.78129 9.9254 8.67502 9.80366L7.42555 8.39553C7.35648 8.31883 7.3227 8.22131 7.3227 8.12711C7.3227 7.91998 7.47452 7.74033 7.72794 7.74033C7.84939 7.74033 7.96123 7.79952 8.06409 7.91516L9.018 9.0145L10.9554 6.05176C11.0397 5.9165 11.1667 5.8392 11.3027 5.8392C11.5028 5.8392 11.6878 5.98111 11.6878 6.19367C11.6878 6.29391 11.6478 6.38601 11.5995 6.46812L9.39752 9.80034C9.30922 9.94557 9.17323 9.99604 9.03318 9.99604ZM0 20.779C0 22.9047 1.11148 24 3.28307 24H15.7197C17.8885 24 19 22.9047 19 20.779V3.22097C19 1.09528 17.8885 0 15.7197 0H3.28307C1.11148 0 0 1.09528 0 3.22097V20.779ZM1.21686 20.7467V3.25328C1.21686 1.9028 1.94288 1.18318 3.35062 1.18318H15.6521C17.0599 1.18318 17.7859 1.9028 17.7859 3.25328V20.7467C17.7859 22.0972 17.0599 22.8141 15.6521 22.8141H3.35062C1.94288 22.8141 1.21686 22.0972 1.21686 20.7467Z" fill="#2A3F6F"/>
</svg>
