<?xml version="1.0" encoding="UTF-8" standalone="no"?><!DOCTYPE svg PUBLIC "-//W3C//DTD SVG 1.1//EN" "http://www.w3.org/Graphics/SVG/1.1/DTD/svg11.dtd"><svg width="100%" height="100%" viewBox="0 0 400 400" version="1.1" xmlns="http://www.w3.org/2000/svg" xmlns:xlink="http://www.w3.org/1999/xlink" xml:space="preserve" xmlns:serif="http://www.serif.com/" style="fill-rule:evenodd;clip-rule:evenodd;stroke-linejoin:round;stroke-miterlimit:2;"><rect id="Artboard2" x="0" y="0" width="400" height="400" style="fill:none;"/><path d="M94.739,205.419c0,0 -9.224,-5.381 -10.146,-9.224c-0.922,-3.843 0.053,-12.149 4.612,-13.836c15.373,-5.688 87.627,-20.293 87.627,-20.293c0,0 1.999,-36.896 0.922,-45.197c-0.373,-2.877 -8.78,-3.59 -9.224,-6.457c-1.691,-10.915 -1.845,-47.964 -0.922,-59.033c0.271,-3.257 3.192,-7.523 6.457,-7.379c20.908,0.922 98.235,9.839 118.989,12.914c2.581,0.382 5.295,2.936 5.534,5.534c0.922,9.993 0,54.421 0,54.421c0,0 -0.702,5.756 -2.767,7.379c-2.152,1.691 -10.146,2.767 -10.146,2.767l2.767,52.576l16.603,127.29c0,0 -4.919,5.996 -8.302,6.457c-3.382,0.461 -11.991,-3.69 -11.991,-3.69l-13.836,-103.308l-47.964,23.06l2.767,118.066c0,0 -7.533,5.227 -11.069,5.534c-3.536,0.307 -10.146,-3.69 -10.146,-3.69l-1.845,-117.144l-14.758,-0.922l-0.922,56.266c0,0 -6.918,3.69 -10.146,3.69c-3.228,0 -9.224,-3.69 -9.224,-3.69l0.922,-59.956l-55.344,-10.146l-8.302,106.998c0,0 -7.379,4.612 -11.069,4.612c-3.69,0 -11.069,-4.612 -11.069,-4.612l11.991,-118.989Zm1.845,-11.991c0.154,1.537 74.099,21.676 104.23,20.293c27.149,-1.247 75.238,-28.946 75.636,-30.439c1.231,-4.617 -51.342,18.095 -76.559,21.215c-29.341,3.63 -103.462,-12.606 -103.308,-11.069Zm118.071,-113.429c-0.697,0.169 -1.2,0.768 -1.242,1.478c-0.042,0.71 0.387,1.367 1.059,1.622l9.742,3.698c0.174,0.066 0.329,0.173 0.453,0.311c0.124,0.138 0.212,0.304 0.257,0.483l2.523,10.021c0.174,0.691 0.781,1.192 1.498,1.237c0.717,0.045 1.379,-0.376 1.633,-1.041l3.688,-9.631c0.066,-0.172 0.173,-0.325 0.312,-0.447c0.139,-0.122 0.306,-0.208 0.486,-0.252l10.107,-2.451c0.697,-0.169 1.2,-0.768 1.242,-1.478c0.042,-0.71 -0.387,-1.367 -1.059,-1.622l-9.742,-3.698c-0.174,-0.066 -0.329,-0.173 -0.453,-0.311c-0.124,-0.138 -0.212,-0.304 -0.257,-0.483l-2.523,-10.021c-0.174,-0.691 -0.781,-1.192 -1.498,-1.237c-0.717,-0.045 -1.379,0.376 -1.633,1.041l-3.688,9.631c-0.066,0.172 -0.173,0.325 -0.312,0.447c-0.139,0.122 -0.306,0.208 -0.486,0.252l-10.107,2.451Zm-34.129,-1.845c-0.697,0.169 -1.2,0.768 -1.242,1.478c-0.042,0.71 0.387,1.367 1.059,1.622l9.742,3.698c0.174,0.066 0.329,0.173 0.453,0.311c0.124,0.138 0.212,0.304 0.257,0.483l2.523,10.021c0.174,0.691 0.781,1.192 1.498,1.237c0.717,0.045 1.379,-0.376 1.633,-1.041l3.688,-9.631c0.066,-0.172 0.173,-0.325 0.312,-0.447c0.139,-0.122 0.306,-0.208 0.486,-0.252l10.107,-2.451c0.697,-0.169 1.2,-0.768 1.242,-1.478c0.042,-0.71 -0.387,-1.367 -1.059,-1.622l-9.742,-3.698c-0.174,-0.066 -0.329,-0.173 -0.453,-0.311c-0.124,-0.138 -0.212,-0.304 -0.257,-0.483l-2.523,-10.021c-0.174,-0.691 -0.781,-1.192 -1.498,-1.237c-0.717,-0.045 -1.379,0.376 -1.633,1.041l-3.688,9.631c-0.066,0.172 -0.173,0.325 -0.312,0.447c-0.139,0.122 -0.306,0.208 -0.486,0.252l-10.107,2.451Zm16.599,40.56l-1.845,44.275l71.947,9.224l0,-46.12l-70.102,-7.379Zm51.658,-36.871c-0.697,0.169 -1.2,0.768 -1.242,1.478c-0.042,0.71 0.387,1.367 1.059,1.622l9.742,3.698c0.174,0.066 0.329,0.173 0.453,0.311c0.124,0.138 0.212,0.304 0.257,0.483l2.523,10.021c0.174,0.691 0.781,1.192 1.498,1.237c0.717,0.045 1.379,-0.376 1.633,-1.041l3.688,-9.631c0.066,-0.172 0.173,-0.325 0.312,-0.447c0.139,-0.122 0.306,-0.208 0.486,-0.252l10.107,-2.451c0.697,-0.169 1.2,-0.768 1.242,-1.478c0.042,-0.71 -0.387,-1.367 -1.059,-1.622l-9.742,-3.698c-0.174,-0.066 -0.329,-0.173 -0.453,-0.311c-0.124,-0.138 -0.212,-0.304 -0.257,-0.483l-2.523,-10.021c-0.174,-0.691 -0.781,-1.192 -1.498,-1.237c-0.717,-0.045 -1.379,0.376 -1.633,1.041l-3.688,9.631c-0.066,0.172 -0.173,0.325 -0.312,0.447c-0.139,0.122 -0.306,0.208 -0.486,0.252l-10.107,2.451Z" style="fill-rule:nonzero;"/></svg>