<?xml version="1.0" encoding="UTF-8" standalone="no"?><!DOCTYPE svg PUBLIC "-//W3C//DTD SVG 1.1//EN" "http://www.w3.org/Graphics/SVG/1.1/DTD/svg11.dtd"><svg width="100%" height="100%" viewBox="0 0 400 400" version="1.1" xmlns="http://www.w3.org/2000/svg" xmlns:xlink="http://www.w3.org/1999/xlink" xml:space="preserve" xmlns:serif="http://www.serif.com/" style="fill-rule:evenodd;clip-rule:evenodd;stroke-linejoin:round;stroke-miterlimit:2;"><rect id="Artboard5" x="0" y="0" width="400" height="400" style="fill:none;"/><g id="Artboard51" serif:id="Artboard5"><path d="M79.522,183.54c0,0 -0.691,-3.327 -1.798,-3.095c-1.415,0.296 -6.713,3.269 -6.691,4.871c0.076,5.646 13.81,3.022 14.871,5.512c2.964,6.957 -4.461,19.294 -8.001,19.03c-5.537,-0.413 -19.728,1.44 -19.728,1.44c0,0 21.465,-7.812 22.784,-10.477c1.319,-2.665 -12.027,-0.526 -13.985,-3.458c-1.958,-2.931 0.904,-10.958 2.236,-14.129c1.111,-2.647 2.941,-4.983 4.868,-6.953c1.927,-1.971 5.12,-4.58 6.691,-4.871c1.307,-0.242 2.882,1.699 2.735,3.123c-0.208,2.022 -3.982,9.008 -3.982,9.008Zm46.878,-23.231c5.092,29.414 9.975,54.339 0.443,74.026c-16.016,27.605 -82.604,48.151 -97.491,28.822c-11.22,-16.125 -6.913,-47.335 -6.347,-51.435c0.595,-4.311 1.899,-8.467 2.344,-12.805l2.952,1.98c-15.131,75.033 94.003,28.297 92.407,4.596l-9.867,-65.212l10.876,-23.241c-0.077,14.635 11.461,23.629 9.442,27.442c-1.102,2.081 -6.449,13.184 -4.76,15.827Zm162.823,-0.837l-0.554,0.213c-0.17,0.065 -0.321,0.171 -0.441,0.309c-0.12,0.138 -0.206,0.304 -0.25,0.483l-2.453,10.049c-0.169,0.693 -0.76,1.193 -1.46,1.233c-0.699,0.041 -1.344,-0.387 -1.593,-1.056l-3.603,-9.697c-0.064,-0.173 -0.169,-0.328 -0.304,-0.451c-0.136,-0.123 -0.298,-0.211 -0.474,-0.256l-9.856,-2.526c-0.68,-0.174 -1.171,-0.779 -1.212,-1.492c-0.042,-0.714 0.376,-1.371 1.031,-1.623l9.496,-3.653c0.17,-0.065 0.321,-0.171 0.441,-0.309c0.12,-0.138 0.206,-0.304 0.25,-0.483l2.453,-10.049c0.169,-0.693 0.76,-1.193 1.46,-1.233c0.699,-0.041 1.344,0.387 1.593,1.056l3.603,9.697c0.064,0.173 0.169,0.328 0.304,0.451c0.136,0.123 0.298,0.211 0.474,0.256l1.442,0.369l-6.202,2.386c-1.032,0.397 -1.696,1.428 -1.63,2.552c0.065,1.124 0.845,2.071 1.916,2.346l5.57,1.428Zm-5.519,-5.451l9.496,-3.653c0.17,-0.065 0.321,-0.171 0.441,-0.309c0.12,-0.138 0.206,-0.304 0.25,-0.483l2.453,-10.049c0.169,-0.693 0.76,-1.193 1.46,-1.233c0.699,-0.041 1.344,0.387 1.593,1.056l3.603,9.697c0.064,0.173 0.169,0.328 0.304,0.451c0.136,0.123 0.298,0.211 0.474,0.256l9.856,2.526c0.68,0.174 1.171,0.779 1.212,1.492c0.042,0.714 -0.376,1.371 -1.031,1.623l-9.496,3.653c-0.17,0.065 -0.321,0.171 -0.441,0.309c-0.12,0.138 -0.206,0.304 -0.25,0.483l-2.453,10.049c-0.169,0.693 -0.76,1.193 -1.46,1.233c-0.699,0.041 -1.344,-0.387 -1.593,-1.056l-3.603,-9.697c-0.064,-0.173 -0.169,-0.328 -0.304,-0.451c-0.136,-0.123 -0.298,-0.211 -0.474,-0.256l-9.856,-2.526c-0.68,-0.174 -1.171,-0.779 -1.212,-1.492c-0.042,-0.714 0.376,-1.371 1.031,-1.623Zm-94.947,82.79c-1.628,4.447 -3.296,5.84 -11.553,7.818c-19.603,4.694 -19.658,3.935 -39.749,6.241c-1.929,1.813 0.108,-1.057 3.019,-29.437c11.782,-2.161 23.878,-2.602 35.66,-4.763c4.035,-0.74 8.242,-1.782 11.545,-3.894c3.566,-8.492 -8.222,-26.152 -28.748,-22.086l6.949,-23.43c1.897,0.846 15.962,1.499 24.804,11.058c7.169,7.751 4.982,26.156 4.708,28.467l-2.419,12.362c1.133,6.121 7.694,17.186 16.455,19.751c10.045,2.94 23.317,-8.083 23.193,-8.608c0,0 -6.771,-12.318 -21.754,-5.637l3.539,-22.527c0,0 7.486,-3.966 11.486,-5.298c4.528,-1.508 11.026,-3.402 15.682,-3.751c4.112,-0.308 9.552,-0.053 12.257,1.659c2.672,1.691 3.743,5.461 3.973,8.615c0.309,4.227 -3.154,14.674 -4.974,18.662c-1.922,4.213 -4.143,6.496 -4.088,8.502c0.051,1.885 4.416,3.535 4.416,3.535c0,0 3.384,0.325 5.08,0.443c3.718,0.259 15.071,-2.102 16.566,-4.855c-2.52,-2.224 -3.274,-9.206 -3.31,-11.707c-0.073,-5.038 0.657,-9.932 1.439,-14.245c0.953,-5.253 2.607,-12.007 4.311,-15.57c9.496,-19.86 27.622,-15.273 29.154,-0.214c0.562,5.522 -0.371,11.779 -1.108,17.227c-0.707,5.223 -2.447,12.047 -3.317,15.46c0.154,0.496 9.515,-1.664 12.59,-4.414c2.641,-2.362 5.302,-5.115 7.18,-7.839c1.785,-2.589 2.759,-5.652 4.088,-8.502c1.897,-4.067 5.413,-11.922 7.292,-15.9c1.085,-2.298 4.628,-6.21 5.696,-6.955c0.986,-0.688 6.542,-4.472 10.098,-4.857c2.548,-0.276 7.955,1.357 10.49,3.868c3.62,3.585 6.365,11.261 6.843,16.346c0.612,6.514 -0.089,13.001 -0.888,19.215c-0.888,6.903 -6.741,20.87 -6.741,20.87c0,0 -22.913,-5.509 -27.937,-6.964c-0.906,-0.262 -1.638,-1.16 -2.208,-1.767c-0.51,-0.543 -0.863,-1.22 -1.214,-1.878c-0.423,-0.792 -0.883,-1.914 -1.324,-2.872c-2.394,5.631 -4.126,12.699 -7.182,16.894c-2.006,2.754 -6.721,6.895 -10.187,7.878c-0.361,0.176 -0.731,0.331 -0.969,0.402c-1.785,0.533 -5.819,2.102 -8.835,1.986c-3.368,-0.13 -11.374,-2.764 -11.374,-2.764c0.008,0.09 -8.431,8.081 -12.813,11.482c-5.195,4.032 -14.335,6.308 -18.444,6.069c-0.133,-0.008 -0.441,0.055 -0.441,0.055c0,0 -5.526,-0.023 -5.737,-1.307c-4.212,-0.083 -11.513,-9.543 -12.493,-13.831l-0.025,-0.115l-0.088,0.174c-2.298,4.503 -8.869,14.909 -14.126,17.666c-5.904,3.096 -14.707,3.475 -19.878,2.204c-4.812,-1.183 -8.686,-5.745 -11.151,-9.831c-2.465,-4.087 -3.515,-9.646 -3.641,-14.688c-0.032,-1.284 0.049,-2.789 0.201,-4.401Zm171.97,-30.785c0.856,-4.705 -4.078,-14.139 -10.307,-17.607c-3.655,-2.035 -6.966,-1.132 -8.794,-0.397c-3.527,1.417 -8.222,7.273 -10.051,9.163c0,0 4.919,3.825 6.514,4.308c4.859,1.474 22.637,4.533 22.637,4.533Zm-68.913,13.677c-0.342,-2.353 6.386,-12.203 8.958,-15.641c1.125,-1.504 -9.025,-7.296 -12.597,-8.103c-4.011,-0.906 -13.783,10.004 -11.599,13.359c1.846,2.835 7.334,6.919 15.237,10.384Z"/></g></svg>