<svg width="22" height="24" viewBox="0 0 22 24" fill="none" xmlns="http://www.w3.org/2000/svg">
<path d="M0 21.1309C0 22.9533 0.851349 24 2.55084 24H19.1304C21.0296 24 22 22.9107 22 20.8004V3.19681C22 1.0832 21.0296 0 19.1304 0H6.90945C5.0102 0 4.03975 1.0832 4.03975 3.19681V9.20177H1.71939C0.64208 9.20177 0 9.86928 0 10.9963V21.1309ZM1.05656 21.1227V11.1842C1.05656 10.6888 1.33759 10.3876 1.79879 10.3876H4.03975V21.1227C4.03975 22.1177 3.41335 22.8141 2.55084 22.8141C1.68296 22.8141 1.05656 22.1023 1.05656 21.1227ZM4.6206 22.8141C4.93657 22.3631 5.09631 21.7744 5.09631 21.0786V3.26265C5.09631 1.89073 5.73745 1.18318 6.93285 1.18318H19.0991C20.3023 1.18318 20.9435 1.89073 20.9435 3.26265V20.7346C20.9435 22.1066 20.3023 22.8141 19.0991 22.8141H4.6206ZM7.94846 6.30958H18.1045C18.3585 6.30958 18.5489 6.08975 18.5489 5.81889C18.5489 5.5453 18.3585 5.33152 18.1045 5.33152H7.94846C7.69153 5.33152 7.50106 5.5453 7.50106 5.81889C7.50106 6.08975 7.69153 6.30958 7.94846 6.30958ZM7.94846 10.3876H18.1045C18.3585 10.3876 18.5489 10.1766 18.5489 9.90899C18.5489 9.63539 18.3585 9.41558 18.1045 9.41558H7.94846C7.69153 9.41558 7.50106 9.63539 7.50106 9.90899C7.50106 10.1766 7.69153 10.3876 7.94846 10.3876ZM8.60814 18.6014H11.2386C11.9433 18.6014 12.3836 18.1072 12.3836 17.3217V14.7822C12.3836 14.0026 11.9433 13.5024 11.2386 13.5024H8.60814C7.90345 13.5024 7.45778 14.0026 7.45778 14.7822V17.3217C7.45778 18.1072 7.90345 18.6014 8.60814 18.6014ZM14.2431 14.4777H18.0967C18.3483 14.4777 18.5387 14.2667 18.5387 13.9991C18.5387 13.7195 18.3483 13.5024 18.0967 13.5024H14.2431C13.9862 13.5024 13.7958 13.7195 13.7958 13.9991C13.7958 14.2667 13.9862 14.4777 14.2431 14.4777ZM14.2431 18.6014H18.0967C18.3483 18.6014 18.5387 18.3876 18.5387 18.1201C18.5387 17.8492 18.3483 17.6294 18.0967 17.6294H14.2431C13.9862 17.6294 13.7958 17.8492 13.7958 18.1201C13.7958 18.3876 13.9862 18.6014 14.2431 18.6014Z" fill="#2A3F6F"/>
</svg>
