<svg width="17" height="21" viewBox="0 0 17 21" fill="none" xmlns="http://www.w3.org/2000/svg">
<g clip-path="url(#clip0_67_467)">
<path d="M3.40408 6.43331C3.40408 7.70911 4.27466 8.6404 5.9251 9.13268L11.058 10.6804C13.1854 11.3112 14.2961 12.5784 14.2961 14.3758V14.9013C14.1302 14.8682 13.9582 14.8523 13.7828 14.8523C13.6082 14.8523 13.4373 14.8681 13.2722 14.9009V14.3758C13.2722 13.0947 12.4068 12.1687 10.7535 11.6711L5.6182 10.1258C3.48564 9.49497 2.38013 8.22779 2.38013 6.43331V5.9032C2.54453 5.93583 2.71466 5.95143 2.88833 5.95143C3.06465 5.95143 3.23729 5.9354 3.40408 5.90216V6.43331Z" fill="#2A3F6F"/>
<path d="M2.88824 5.95116C4.48433 5.95116 5.77935 4.63789 5.77935 3.0116C5.77935 1.39537 4.48433 0.0820923 2.88824 0.0820923C1.29502 0.0820923 0 1.39537 0 3.0116C0 4.63789 1.29502 5.95116 2.88824 5.95116ZM2.88824 4.93209C1.83685 4.93209 1.00543 4.08504 1.00543 3.0116C1.00543 1.94292 1.84675 1.10117 2.88824 1.10117C3.94772 1.10117 4.77392 1.94292 4.77392 3.0116C4.77392 4.08504 3.95527 4.93209 2.88824 4.93209ZM13.7827 14.8521C12.1865 14.8521 10.8915 16.1678 10.8915 17.7969C10.8915 19.4132 12.1865 20.7235 13.7827 20.7235C15.3811 20.7235 16.6761 19.4132 16.6761 17.7969C16.6761 16.1678 15.3811 14.8521 13.7827 14.8521Z" fill="#2A3F6F"/>
</g>
<defs>
<clipPath id="clip0_67_467">
<rect width="16.9558" height="20.7238" fill="white"/>
</clipPath>
</defs>
</svg>
