<svg width="17" height="24" viewBox="0 0 17 24" fill="none" xmlns="http://www.w3.org/2000/svg">
<path d="M5.26358 24H11.7364C15.3052 24 17.0251 22.3605 16.9997 19.0132C16.9573 15.0574 16.9318 12.1855 16.8268 10.0357C16.5295 3.81154 14.7104 2.03844 8.49837 2.03844C2.29216 2.03844 0.470458 3.81154 0.175716 10.0357C0.0681128 12.1855 0.0426747 15.0574 0.000278019 19.0132C-0.02516 22.3605 1.69479 24 5.26358 24ZM5.26358 22.9705C2.33091 22.9705 1.08479 21.8015 1.11022 19.0216C1.15262 15.0681 1.18069 12.215 1.28566 10.0913C1.55438 4.40805 2.93677 3.07819 8.49837 3.07819C14.0632 3.07819 15.4456 4.40805 15.7143 10.0913C15.8219 12.215 15.8473 15.0681 15.8897 19.0216C15.9151 21.8015 14.6717 22.9705 11.7364 22.9705H5.26358ZM8.50685 0C6.79699 0 5.51355 1.10306 5.51355 2.60696H6.55567C6.55567 1.64695 7.39512 0.966533 8.50685 0.966533C9.61591 0.966533 10.4496 1.64695 10.4496 2.60696H11.4917C11.4917 1.10306 10.2083 0 8.50685 0ZM5.14156 20.1531H11.861C12.7719 20.1531 13.3757 19.5955 13.3757 18.7434V14.0047C13.3757 13.1526 12.7719 12.595 11.861 12.595H5.14156C4.23393 12.595 3.6269 13.1581 3.6269 14.0047V18.7434C3.6269 19.5901 4.23393 20.1531 5.14156 20.1531ZM5.25833 19.192C4.9055 19.192 4.66901 18.9727 4.66901 18.6503V14.0949C4.66901 13.778 4.9055 13.5562 5.25833 13.5562H11.7416C12.0944 13.5562 12.3336 13.778 12.3336 14.0949V18.6503C12.3336 18.9727 12.0944 19.192 11.7416 19.192H5.25833ZM4.24021 16.1259H12.7565V15.2335H4.24021V16.1259Z" fill="#2A3F6F"/>
</svg>
