<svg width="101" height="99" viewBox="0 0 101 99" fill="none" xmlns="http://www.w3.org/2000/svg">
<path d="M24.7058 49.6833C24.7058 49.6833 22.5108 48.3222 22.3199 47.4003C22.1291 46.4783 22.4379 44.5119 23.5604 44.151C27.3454 42.9344 45.0304 40.1002 45.0304 40.1002C45.0304 40.1002 45.8353 31.3445 45.6453 29.3611C45.5796 28.6737 43.5427 28.4298 43.4596 27.7442C43.1431 25.1338 43.4261 16.3227 43.7462 13.6988C43.8402 12.9267 44.5869 11.9381 45.3791 12.0012C50.4521 12.4053 69.1664 15.2091 74.1832 16.1238C74.8072 16.2374 75.4446 16.8687 75.4802 17.4886C75.6178 19.873 75.0095 30.4292 75.0095 30.4292C75.0095 30.4292 74.7891 31.7917 74.2733 32.1594C73.7357 32.5424 71.7837 32.7276 71.7837 32.7276L72.0014 45.254L74.9352 75.6686C74.9352 75.6686 73.6879 77.0508 72.8618 77.1306C72.036 77.2103 69.9798 76.1471 69.9798 76.1471L67.511 51.4596L55.6557 56.519L55.3069 84.6179C55.3069 84.6179 53.4311 85.7942 52.5692 85.836C51.7072 85.8777 50.1355 84.8689 50.1355 84.8689L50.7003 56.9973L47.1219 56.6476L46.4112 70.0188C46.4112 70.0188 44.6981 70.8351 43.9137 70.8065C43.1292 70.778 41.7041 69.8476 41.7041 69.8476L42.4467 55.599L29.0852 52.6972L26.1422 78.0665C26.1422 78.0665 24.3091 79.0979 23.4124 79.0653C22.5157 79.0327 20.7624 77.8708 20.7624 77.8708L24.7055 49.6828L24.7058 49.6833ZM25.2578 46.8483C25.282 47.2151 43.0773 52.6576 50.4115 52.595C57.0198 52.5385 68.9457 46.3771 69.0553 46.0256C69.3944 44.9386 56.422 49.8745 50.267 50.3935C43.1054 50.9973 25.2337 46.4815 25.2578 46.8483ZM54.9316 20.9201C54.7608 20.9541 54.6334 21.0921 54.617 21.2606C54.6007 21.429 54.6993 21.589 54.8604 21.6556L57.1958 22.6211C57.2375 22.6383 57.2743 22.6651 57.3032 22.699C57.3321 22.7329 57.3521 22.7732 57.3615 22.8161L57.8879 25.2213C57.9242 25.3871 58.0674 25.5116 58.2413 25.5287C58.4151 25.5457 58.5796 25.4515 58.6471 25.2956L59.6266 23.0381C59.6442 22.9977 59.6715 22.9623 59.7063 22.9345C59.7411 22.9067 59.7825 22.8878 59.8266 22.8789L62.3039 22.3854C62.4748 22.3514 62.6022 22.2134 62.6185 22.045C62.6349 21.8765 62.5363 21.7165 62.3752 21.6499L60.0398 20.6845C59.9981 20.6672 59.9613 20.6404 59.9324 20.6065C59.9034 20.5726 59.8835 20.5323 59.8741 20.4894L59.3476 18.0842C59.3113 17.9184 59.1682 17.7939 58.9943 17.7768C58.8205 17.7598 58.656 17.8541 58.5885 18.0099L57.6089 20.2675C57.5914 20.3078 57.5641 20.3432 57.5293 20.371C57.4944 20.3988 57.4531 20.4177 57.409 20.4266L54.9316 20.9201ZM46.6538 20.1797C46.483 20.2137 46.3556 20.3517 46.3392 20.5202C46.3229 20.6886 46.4214 20.8486 46.5825 20.9152L48.918 21.8807C48.9597 21.8979 48.9964 21.9247 49.0254 21.9586C49.0543 21.9925 49.0743 22.0328 49.0837 22.0757L49.6101 24.4809C49.6464 24.6468 49.7896 24.7712 49.9634 24.7883C50.1373 24.8053 50.3018 24.7111 50.3693 24.5552L51.3488 22.2977C51.3663 22.2574 51.3937 22.2219 51.4285 22.1941C51.4633 22.1664 51.5047 22.1474 51.5488 22.1385L54.0261 21.645C54.197 21.611 54.3244 21.473 54.3407 21.3046C54.3571 21.1361 54.2585 20.9761 54.0974 20.9095L51.762 19.9441C51.7202 19.9268 51.6835 19.9 51.6546 19.8661C51.6256 19.8322 51.6057 19.7919 51.5963 19.749L51.0698 17.3438C51.0335 17.178 50.8903 17.0535 50.7165 17.0364C50.5426 17.0194 50.3781 17.1137 50.3107 17.2695L49.3311 19.5271C49.3136 19.5674 49.2863 19.6028 49.2514 19.6306C49.2166 19.6584 49.1753 19.6774 49.1312 19.6862L46.6538 20.1797ZM50.3368 29.971L49.5055 40.4827L66.9097 43.312L67.3086 32.3453L50.3368 29.971ZM63.2092 21.6602C63.0384 21.6943 62.911 21.8323 62.8946 22.0007C62.8783 22.1692 62.9768 22.3292 63.1379 22.3958L65.4734 23.3612C65.5151 23.3784 65.5518 23.4053 65.5808 23.4392C65.6097 23.4731 65.6297 23.5133 65.6391 23.5563L66.1655 25.9614C66.2018 26.1273 66.345 26.2518 66.5188 26.2688C66.6927 26.2859 66.8572 26.1916 66.9247 26.0357L67.9042 23.7782C67.9217 23.7379 67.9491 23.7025 67.9839 23.6747C68.0187 23.6469 68.0601 23.6279 68.1042 23.619L70.5815 23.1256C70.7524 23.0915 70.8798 22.9536 70.8961 22.7851C70.9125 22.6166 70.8139 22.4566 70.6528 22.3901L68.3173 21.4246C68.2756 21.4074 68.2389 21.3806 68.2099 21.3466C68.181 21.3127 68.1611 21.2725 68.1517 21.2295L67.6252 18.8244C67.5889 18.6585 67.4457 18.534 67.2719 18.517C67.098 18.4999 66.9335 18.5942 66.8661 18.7501L65.8865 21.0076C65.869 21.0479 65.8417 21.0834 65.8068 21.1111C65.772 21.1389 65.7307 21.1579 65.6866 21.1668L63.2092 21.6602Z" fill="white"/>
</svg>
