<svg width="45" height="30" viewBox="0 0 45 30" fill="none" xmlns="http://www.w3.org/2000/svg">
<path d="M19.6444 19.2187C19.2083 19.577 18.8069 19.955 18.4423 20.3479C16.6789 19.2406 14.4915 18.5722 12.1587 18.5722C6.46278 18.5722 1.62114 22.5621 1.62114 27.0886C1.62114 27.7325 1.90295 27.9802 2.61614 27.9802H15.3125C15.3962 28.5784 15.6008 29.12 15.9323 29.5848H2.79824C0.931739 29.5848 0 28.791 0 27.1593C0 22.1109 5.05765 16.9765 12.1587 16.9765C15.0694 16.9765 17.6374 17.8413 19.6444 19.2187ZM18.0732 8.43216C18.0732 12.088 15.4768 14.9462 12.1832 14.9462C8.89821 14.9462 6.30093 12.0968 6.30093 8.44962C6.30093 4.97704 8.94706 2.07959 12.1832 2.07959C15.4376 2.07959 18.0732 4.93819 18.0732 8.43216ZM7.91815 8.44962C7.91815 11.2041 9.81615 13.3289 12.1832 13.3289C14.5589 13.3289 16.4648 11.2041 16.4648 8.43216C16.4648 5.82209 14.5449 3.69681 12.1832 3.69681C9.8397 3.69681 7.91815 5.85221 7.91815 8.44962Z" fill="white"/>
<path d="M30.9953 14.6937C34.7669 14.6937 37.7485 11.4091 37.7485 7.25975C37.7485 3.23734 34.7276 0 30.9953 0C27.2601 0 24.2295 3.27619 24.2295 7.27721C24.2295 11.4178 27.2199 14.6937 30.9953 14.6937ZM30.9953 13.0589C28.1912 13.0589 25.9398 10.5426 25.9398 7.27721C25.9398 4.15135 28.206 1.63468 30.9953 1.63468C33.769 1.63468 36.0383 4.12124 36.0383 7.25975C36.0383 10.5252 33.7957 13.0589 30.9953 13.0589ZM20.2879 29.5848H41.6452C43.8849 29.5848 44.9409 28.8591 44.9409 27.2771C44.9409 23.0322 39.6021 17.0174 30.9622 17.0174C22.331 17.0174 16.9922 23.0322 16.9922 27.2771C16.9922 28.8591 18.0483 29.5848 20.2879 29.5848ZM19.8993 27.9501C19.0047 27.9501 18.7063 27.7307 18.7063 27.1181C18.7063 23.8128 23.1922 18.657 30.9622 18.657C38.7409 18.657 43.2269 23.8128 43.2269 27.1181C43.2269 27.7307 42.9284 27.9501 42.0338 27.9501H19.8993Z" fill="white"/>
</svg>
