<svg width="44" height="29" viewBox="0 0 44 29" fill="none" xmlns="http://www.w3.org/2000/svg">
<path d="M0.328496 24.1808C1.70743 28.6846 8.57629 29.4565 16.1415 26.0689L15.5527 24.7931C8.91972 27.7743 2.75014 27.3419 1.69377 23.7687C-0.887701 15.211 17.1216 13.8582 15.1666 7.28025C14.214 4.05063 6.33902 4.64449 0.738747 8.40811C-0.0979527 8.96115 0.692053 10.1213 1.50345 9.55955C5.866 6.67095 13.1887 5.5456 13.8305 7.6757C14.2961 9.24856 13.0605 10.2492 8.43734 12.9287C4.07074 15.4552 -1.40387 18.4552 0.328496 24.1808Z" fill="white"/>
<path d="M22.3092 22.9067L39.8575 5.37974L37.636 3.14652L20.0838 20.6568L18.4627 23.9572C18.3227 24.2605 18.6553 24.5821 18.9468 24.4548L22.3092 22.9067ZM41.089 4.17354L42.4759 2.81194C43.2015 2.09407 43.2238 1.37441 42.578 0.728549L42.2763 0.422054C41.6549 -0.194589 40.906 -0.122581 40.2212 0.55341L38.8422 1.91893L41.089 4.17354Z" fill="white"/>
</svg>
