<svg width="42" height="39" viewBox="0 0 42 39" fill="none" xmlns="http://www.w3.org/2000/svg">
<path d="M10.6523 38.8739C11.2878 38.8739 11.7436 38.5254 12.4496 37.8939L19.2788 31.8895H33.6074C38.5678 31.8895 41.4655 28.8948 41.4655 23.9572V7.94272C41.4655 2.99013 38.5678 0 33.6074 0H7.85811C2.88727 0 0 2.96571 0 7.94272V23.9572C0 28.9343 2.88727 31.8895 7.85811 31.8895H9.2497V37.235C9.2497 38.2316 9.77655 38.8739 10.6523 38.8739ZM11.1376 36.5677V30.8285C11.1376 30.1192 10.8685 29.8472 10.1769 29.8472H7.88691C4.117 29.8472 2.02061 27.6544 2.02061 23.9178V7.96715C2.02061 4.23521 4.117 2.03771 7.88691 2.03771H33.5785C37.2852 2.03771 39.4448 4.23521 39.4448 7.96715V23.9178C39.4448 27.6544 37.2852 29.8472 33.5785 29.8472H19.3255C18.5522 29.8472 18.1524 29.9792 17.5748 30.5503L11.1376 36.5677Z" fill="white"/>
<path d="M20.0844 18.9183C20.8341 18.9183 21.2823 18.5186 21.2944 17.8152L21.5394 7.67384C21.5462 6.98043 20.9332 6.479 20.0721 6.479C19.2046 6.479 18.6226 6.97035 18.6349 7.66376L18.8555 17.8152C18.8621 18.5086 19.3279 18.9183 20.0844 18.9183ZM20.0844 24.6201C21.1532 24.6201 22.028 23.9026 22.028 23.0449C22.028 22.1727 21.1599 21.4698 20.0844 21.4698C19.021 21.4698 18.1406 22.1829 18.1406 23.0449C18.1406 23.8924 19.0333 24.6201 20.0844 24.6201Z" fill="white"/>
</svg>
