<svg width="39" height="33" viewBox="0 0 39 33" fill="none" xmlns="http://www.w3.org/2000/svg">
<path d="M32.4293 15.1327C31.8458 15.0135 31.243 14.9508 30.6267 14.9496C29.9778 7.56686 23.7898 1.79361 16.2365 1.79361C8.24844 1.79361 1.78488 8.25716 1.78488 16.2491C1.78488 24.2373 8.24844 30.7009 16.2365 30.7009C18.3076 30.7009 20.2759 30.2668 22.0515 29.4773C22.3444 30.0062 22.6899 30.502 23.0793 30.9598C21.0058 31.9446 18.684 32.4857 16.2365 32.4857C7.26765 32.4857 0 25.2181 0 16.2491C0 7.28025 7.26765 0 16.2365 0C24.8285 0 31.8708 6.68119 32.4293 15.1327Z" fill="white"/>
<path d="M17.0107 5.32234V16.9866C17.0107 17.4296 16.6707 17.7696 16.2276 17.7696H7.19322C6.75019 17.7696 6.42676 17.4296 6.42676 16.9866C6.42676 16.5679 6.75019 16.2279 7.19322 16.2279H15.473V5.32234C15.473 4.8959 15.8178 4.56372 16.2276 4.56372C16.6707 4.56372 17.0107 4.8959 17.0107 5.32234Z" fill="white"/>
<path d="M38.5794 24.7056C38.5794 29.1068 34.9248 32.7361 30.5539 32.7361C26.1518 32.7361 22.5195 29.1243 22.5195 24.7056C22.5195 20.3085 26.1518 16.6713 30.5539 16.6713C34.955 16.6713 38.5794 20.2958 38.5794 24.7056ZM29.3076 28.5308C29.3076 29.2176 29.859 29.7771 30.5373 29.7771C31.2076 29.7771 31.767 29.2176 31.7749 28.5308C31.7913 27.8858 31.2242 27.3098 30.5373 27.3098C29.8756 27.3098 29.3076 27.8692 29.3076 28.5308ZM29.63 20.4233L29.7321 25.343C29.7407 25.8148 30.0811 26.1543 30.5539 26.1543C31.0177 26.1543 31.3582 25.8148 31.3668 25.343L31.4689 20.4233C31.4737 19.87 31.1033 19.4828 30.5539 19.4828C29.9917 19.4828 29.6252 19.87 29.63 20.4233Z" fill="white"/>
</svg>
