<svg width="29" height="35" viewBox="0 0 29 35" fill="none" xmlns="http://www.w3.org/2000/svg">
<path d="M5.72351 10.7223C5.72351 12.8761 7.1872 14.4484 9.96205 15.2795L18.592 17.8923C22.1687 18.9573 24.0361 21.0966 24.0361 24.131V25.0181C23.7571 24.9624 23.468 24.9356 23.173 24.9356C22.8795 24.9356 22.5922 24.9621 22.3146 25.0176V24.131C22.3146 21.9683 20.8597 20.4049 18.08 19.5649L9.44608 16.9561C5.86064 15.8911 4.00195 13.7518 4.00195 10.7223V9.82734C4.27837 9.88243 4.5644 9.90877 4.85638 9.90877C5.15283 9.90877 5.44309 9.88171 5.72351 9.82559V10.7223Z" fill="white"/>
<path d="M4.85595 9.90834C7.53943 9.90834 9.71672 7.69123 9.71672 4.94568C9.71672 2.21711 7.53943 0 4.85595 0C2.17729 0 0 2.21711 0 4.94568C0 7.69123 2.17729 9.90834 4.85595 9.90834ZM4.85595 8.18791C3.08827 8.18791 1.69042 6.75789 1.69042 4.94568C1.69042 3.1415 3.10491 1.72043 4.85595 1.72043C6.63723 1.72043 8.02631 3.1415 8.02631 4.94568C8.02631 6.75789 6.64993 8.18791 4.85595 8.18791ZM23.1726 24.9352C20.489 24.9352 18.3117 27.1563 18.3117 29.9067C18.3117 32.6353 20.489 34.8475 23.1726 34.8475C25.8599 34.8475 28.0372 32.6353 28.0372 29.9067C28.0372 27.1563 25.8599 24.9352 23.1726 24.9352Z" fill="white"/>
</svg>
