<svg width="39" height="30" viewBox="0 0 39 30" fill="none" xmlns="http://www.w3.org/2000/svg">
<path d="M4.65575 29.3187H33.4464C36.5278 29.3187 38.1109 27.7198 38.1109 24.6938V4.63348C38.1109 1.59887 36.5278 0 33.4464 0H4.65575C1.58318 0 0 1.57444 0 4.63348V24.6938C0 27.753 1.58318 29.3187 4.65575 29.3187ZM4.70245 27.6045C2.7504 27.6045 1.71414 26.5818 1.71414 24.5987V4.71991C1.71414 2.7456 2.7504 1.71414 4.70245 1.71414H33.4085C35.3029 1.71414 36.388 2.7456 36.388 4.71991V24.5987C36.388 26.5818 35.3029 27.6045 33.4085 27.6045H4.70245Z" fill="white"/>
<path d="M23.4564 8.54758H32.7736C33.1855 8.54758 33.4946 8.23375 33.4946 7.83831C33.4946 7.44286 33.1855 7.13776 32.7736 7.13776H23.4564C23.0356 7.13776 22.7305 7.44286 22.7305 7.83831C22.7305 8.23375 23.0356 8.54758 23.4564 8.54758ZM23.4564 15.3906H32.7736C33.1855 15.3906 33.4946 15.0728 33.4946 14.6775C33.4946 14.2907 33.1855 13.9857 32.7736 13.9857H23.4564C23.0356 13.9857 22.7305 14.2907 22.7305 14.6775C22.7305 15.0728 23.0356 15.3906 23.4564 15.3906ZM23.4564 22.2298H32.7736C33.1855 22.2298 33.4946 21.9207 33.4946 21.5341C33.4946 21.1386 33.1855 20.8247 32.7736 20.8247H23.4564C23.0356 20.8247 22.7305 21.1386 22.7305 21.5341C22.7305 21.9207 23.0356 22.2298 23.4564 22.2298ZM5.79015 22.2298H19.2965C19.7234 22.2298 19.9128 21.9605 19.9128 21.5598C19.9128 19.9515 17.5492 15.712 12.5433 15.712C7.53757 15.712 5.18262 19.9515 5.18262 21.5598C5.18262 21.9605 5.36332 22.2298 5.79015 22.2298ZM12.5433 14.537C14.5741 14.5457 16.2048 12.8383 16.2048 10.5466C16.2048 8.40584 14.5741 6.61945 12.5433 6.61945C10.5126 6.61945 8.87322 8.40584 8.87322 10.5466C8.87322 12.8383 10.5126 14.537 12.5433 14.537Z" fill="white"/>
</svg>
