<svg width="27" height="35" viewBox="0 0 27 35" fill="none" xmlns="http://www.w3.org/2000/svg">
<path d="M8.45818 9.64544H21.9238C22.3276 9.64544 22.6706 9.31116 22.6706 8.90331C22.6706 8.48667 22.3276 8.15238 21.9238 8.15238H8.45818C8.05441 8.15238 7.71625 8.48667 7.71625 8.90331C7.71625 9.31116 8.05441 9.64544 8.45818 9.64544ZM8.45818 14.0156H18.1091C18.5129 14.0156 18.8472 13.6813 18.8472 13.2646C18.8472 12.8608 18.5129 12.5265 18.1091 12.5265H8.45818C8.05441 12.5265 7.71625 12.8608 7.71625 13.2646C7.71625 13.6813 8.05441 14.0156 8.45818 14.0156ZM4.53739 35H26.1497C26.6367 35 27 34.6326 27 34.1327C27 33.783 26.763 33.4557 26.4438 33.3175C24.143 32.0919 23.6193 29.3 25.7476 26.9995C26.3976 26.3009 27 25.3732 27 23.8443V4.6979C27 1.59751 25.4205 0 22.3386 0H4.66541C1.57948 0 0 1.59266 0 4.6979V30.5494C0 33.4359 1.5962 35 4.53739 35ZM1.72922 27.11V4.74899C1.72922 2.77926 2.76093 1.72967 4.7526 1.72967H22.2425C24.243 1.72967 25.2748 2.77926 25.2748 4.74899V23.6457C25.2748 25.2457 24.417 26.0948 22.8085 26.0948H4.67524C3.35835 26.0948 2.4529 26.443 1.72922 27.11ZM4.62456 33.2703C2.77765 33.2703 1.72922 32.262 1.72922 30.516C1.72922 28.8473 2.85782 27.8246 4.69593 27.8246H22.1605C22.6142 27.8246 22.9931 27.7704 23.3473 27.667C22.263 29.6759 22.5652 31.7949 23.9973 33.2703H4.62456ZM3.75536 27.0022H5.24408V1.19683H3.75536V27.0022Z" fill="white"/>
</svg>
