<svg width="27" height="35" viewBox="0 0 27 35" fill="none" xmlns="http://www.w3.org/2000/svg">
<path d="M0 30.0363C0 33.109 1.56578 34.6923 4.62494 34.6923H22.1448C25.2 34.6923 26.7658 33.109 26.7658 30.0363V4.65595C26.7658 1.58324 25.2 0 22.1448 0H4.62494C1.56578 0 0 1.58324 0 4.65595V30.0363ZM1.71422 29.9896V4.70265C1.71422 2.75052 2.73698 1.7103 4.72011 1.7103H22.0496C24.0327 1.7103 25.0555 2.75052 25.0555 4.70265V29.9896C25.0555 31.9417 24.0327 32.978 22.0496 32.978H4.72011C2.73698 32.978 1.71422 31.9417 1.71422 29.9896Z" fill="white"/>
<path d="M5.9111 18.9814C6.72189 18.9814 7.38083 18.3224 7.38083 17.5116C7.38083 16.6921 6.72189 16.0292 5.9111 16.0292C5.09639 16.0292 4.42871 16.7008 4.42871 17.5116C4.42871 18.3136 5.09639 18.9814 5.9111 18.9814ZM10.4686 18.2208H21.6268C22.0302 18.2208 22.34 17.9149 22.34 17.5116C22.34 17.1082 22.0388 16.7984 21.6268 16.7984H10.4686C10.0566 16.7984 9.75929 17.1082 9.75929 17.5116C9.75929 17.9149 10.0653 18.2208 10.4686 18.2208Z" fill="white"/>
<path d="M5.9111 13.6865C6.72189 13.6865 7.38083 13.0236 7.38083 12.2041C7.38083 11.3846 6.72189 10.7305 5.9111 10.7305C5.09156 10.7305 4.42871 11.3933 4.42871 12.2041C4.42871 13.0236 5.09156 13.6865 5.9111 13.6865ZM10.4686 12.9134H21.6268C22.0388 12.9134 22.34 12.6162 22.34 12.2041C22.34 11.8008 22.0388 11.5035 21.6268 11.5035H10.4686C10.0566 11.5035 9.75929 11.8008 9.75929 12.2041C9.75929 12.6162 10.0566 12.9134 10.4686 12.9134Z" fill="white"/>
<path d="M5.9111 8.49818C6.72189 8.49818 7.38083 7.83532 7.38083 7.0158C7.38083 6.205 6.72189 5.54214 5.9111 5.54214C5.09639 5.54214 4.42871 6.21373 4.42871 7.0158C4.42871 7.82659 5.09639 8.49818 5.9111 8.49818ZM10.4686 7.73383H21.6268C22.0302 7.73383 22.34 7.41911 22.34 7.0158C22.34 6.61249 22.0302 6.30649 21.6268 6.30649H10.4686C10.0653 6.30649 9.75929 6.61249 9.75929 7.0158C9.75929 7.41911 10.0653 7.73383 10.4686 7.73383Z" fill="white"/>
</svg>
