<svg width="25" height="32" viewBox="0 0 25 32" fill="none" xmlns="http://www.w3.org/2000/svg">
<path d="M6.21116 19.8229H18.4699C18.8454 19.8229 19.1295 19.5379 19.1295 19.1835C19.1295 18.8324 18.8454 18.5554 18.4699 18.5554H6.21116C5.82773 18.5554 5.54348 18.8324 5.54348 19.1835C5.54348 19.5379 5.82773 19.8229 6.21116 19.8229ZM6.21116 24.3365H12.1454C12.5244 24.3365 12.8087 24.0629 12.8087 23.7163C12.8087 23.3618 12.5244 23.0804 12.1454 23.0804H6.21116C5.82773 23.0804 5.54348 23.3618 5.54348 23.7163C5.54348 24.0629 5.82773 24.3365 6.21116 24.3365ZM8.84699 14.676H10.2008C10.3316 14.676 10.4095 14.7249 10.5098 14.8078L11.4739 15.7325C12.0519 16.3185 12.5842 16.3141 13.1623 15.7325L14.1264 14.8078C14.2267 14.7327 14.3002 14.676 14.4506 14.676H15.7812C16.616 14.676 16.9846 14.3211 16.9846 13.511V12.1987C16.9846 12.0711 17.0151 11.9847 17.1082 11.8869L18.0651 10.9544C18.6504 10.3762 18.6504 9.88366 18.0651 9.30194L17.1082 8.37297C17.0151 8.28653 16.9846 8.18874 16.9846 8.06123V6.74895C16.9846 5.93876 16.6241 5.58391 15.7812 5.58391H14.4506C14.3002 5.58391 14.2267 5.53502 14.1264 5.44857L13.1623 4.52744C12.569 3.9457 12.0519 3.95353 11.4666 4.52744L10.5098 5.44857C10.4167 5.54988 10.3316 5.58391 10.2008 5.58391H8.84699C8.01925 5.58391 7.6435 5.93093 7.6435 6.74895V8.06123C7.6435 8.18874 7.61301 8.28653 7.52791 8.37297L6.57107 9.30194C5.97777 9.88366 5.97777 10.3762 6.57107 10.9544L7.52791 11.8869C7.61301 11.9847 7.6435 12.0711 7.6435 12.1987V13.511C7.6435 14.3211 8.01925 14.676 8.84699 14.676ZM11.7052 12.9528C11.5173 12.9528 11.3788 12.8613 11.2411 12.7035L9.622 10.8789C9.5325 10.7795 9.48873 10.6531 9.48873 10.5311C9.48873 10.2627 9.68545 10.0299 10.0138 10.0299C10.1712 10.0299 10.3161 10.1066 10.4494 10.2564L11.6855 11.6809L14.196 7.84184C14.3052 7.66658 14.4698 7.56641 14.646 7.56641C14.9053 7.56641 15.145 7.7503 15.145 8.02573C15.145 8.15563 15.0932 8.27496 15.0306 8.38137L12.1773 12.6992C12.0628 12.8874 11.8866 12.9528 11.7052 12.9528ZM0 26.9253C0 29.6798 1.44026 31.0991 4.25418 31.0991H20.3696C23.1799 31.0991 24.6201 29.6798 24.6201 26.9253V4.17372C24.6201 1.41926 23.1799 0 20.3696 0H4.25418C1.44026 0 0 1.41926 0 4.17372V26.9253ZM1.5768 26.8835V4.21559C1.5768 2.46564 2.51757 1.53316 4.34172 1.53316H20.2819C22.1061 1.53316 23.0469 2.46564 23.0469 4.21559V26.8835C23.0469 28.6334 22.1061 29.5624 20.2819 29.5624H4.34172C2.51757 29.5624 1.5768 28.6334 1.5768 26.8835Z" fill="white"/>
</svg>
