<svg width="26" height="35" viewBox="0 0 26 35" fill="none" xmlns="http://www.w3.org/2000/svg">
<path d="M10.8613 34.2603C16.2505 34.2603 20.0936 31.3291 22.0472 25.791L25.0458 17.3374C25.2112 16.8569 25.2919 16.3987 25.2919 15.9658C25.2919 14.4462 24.1499 13.3488 22.6379 13.3488C21.6124 13.3488 20.6606 13.9871 20.1488 15.2417L18.5921 19.1135C18.559 19.2099 18.5044 19.2479 18.4412 19.2479C18.3525 19.2479 18.3146 19.1846 18.3146 19.0999V4.79837C18.3146 3.03322 17.2259 1.95622 15.6587 1.95622C14.992 1.95622 14.3768 2.20057 13.9291 2.68751C13.8068 1.08168 12.8406 0 11.2894 0C9.76035 0 8.7074 1.12749 8.58034 2.67005C8.14617 2.19184 7.54839 1.95622 6.90872 1.95622C5.40362 1.95622 4.34977 3.02449 4.34977 4.7451V6.83811C3.91561 6.33371 3.25277 6.0972 2.57729 6.0972C1.06346 6.0972 0 7.2004 0 8.9258V22.6886C0 30.2106 4.55427 34.2603 10.8613 34.2603ZM10.8215 32.7431C5.26924 32.7431 1.48448 29.2534 1.48448 22.5606V9.045C1.48448 8.13884 1.98013 7.5241 2.82481 7.5241C3.65683 7.5241 4.2393 8.13884 4.2393 9.045V17.1701C4.2393 17.6837 4.58717 17.9596 4.94857 17.9596C5.34402 17.9596 5.68403 17.6837 5.68403 17.1701V4.88657C5.68403 3.9804 6.17097 3.37831 7.01172 3.37831C7.85247 3.37831 8.43494 3.9804 8.43494 4.88657V16.3349C8.43494 16.8573 8.77408 17.1243 9.14814 17.1243C9.53093 17.1243 9.87096 16.8573 9.87096 16.3349V2.97919C9.87096 2.07694 10.4486 1.41336 11.2894 1.41336C12.0891 1.41336 12.6258 2.07694 12.6258 2.97919V16.3514C12.6258 16.7791 12.9121 17.1243 13.3438 17.1243C13.7715 17.1243 14.0705 16.7791 14.0705 16.3514V4.88657C14.0705 3.9804 14.6442 3.37831 15.485 3.37831C16.321 3.37831 16.8214 3.9804 16.8214 4.88657V20.7072C16.8214 21.3997 17.2739 21.7917 17.8644 21.7917C18.3741 21.7917 18.7865 21.5581 19.0606 20.9096L21.2608 15.7275C21.6212 14.8409 22.3214 14.5037 23.0532 14.7716C23.815 15.0355 24.0535 15.7925 23.7136 16.711L20.6833 25.2925C18.8941 30.3433 15.422 32.7431 10.8215 32.7431Z" fill="white"/>
</svg>
