<svg width="25" height="33" viewBox="0 0 25 33" fill="none" xmlns="http://www.w3.org/2000/svg">
<path d="M4.25418 32.3949H20.3696C23.1799 32.3949 24.6201 30.9084 24.6201 28.0472V13.5069C24.6201 12.021 24.4178 11.3591 23.5121 10.4278L14.4175 1.12484C13.5483 0.21802 12.8437 0 11.4976 0H4.25418C1.47076 0 0 1.4784 0 4.34763V28.0472C0 30.9165 1.44026 32.3949 4.25418 32.3949ZM4.33369 30.7941C2.51757 30.7941 1.5768 29.8265 1.5768 28.0037V4.39124C1.5768 2.61848 2.51757 1.59704 4.34172 1.59704H11.5359V10.9344C11.5359 12.5885 12.3564 13.3568 13.9221 13.3568H23.047V28.0037C23.047 29.8265 22.1061 30.7941 20.2819 30.7941H4.33369ZM14.0746 11.8302C13.3362 11.8302 13.0397 11.5373 13.0397 10.7795V1.93736L22.7117 11.8302H14.0746Z" fill="white"/>
</svg>
