<svg width="33" height="35" viewBox="0 0 33 35" fill="none" xmlns="http://www.w3.org/2000/svg">
<path d="M0 30.8039C0 33.4606 1.25361 34.9865 3.75611 34.9865H28.1693C30.966 34.9865 32.3949 33.3985 32.3949 30.3222V4.66022C32.3949 1.57905 30.966 0 28.1693 0H10.1741C7.37749 0 5.94851 1.57905 5.94851 4.66022V13.4141H2.53179C0.945459 13.4141 0 14.3871 0 16.0301V30.8039ZM1.55578 30.792V16.304C1.55578 15.5819 1.96959 15.1428 2.64871 15.1428H5.94851V30.792C5.94851 32.2425 5.02614 33.2577 3.75611 33.2577C2.47815 33.2577 1.55578 32.22 1.55578 30.792ZM6.80381 33.2577C7.26908 32.6002 7.5043 31.7421 7.5043 30.7277V4.75619C7.5043 2.75624 8.44837 1.7248 10.2086 1.7248H28.1234C29.895 1.7248 30.8392 2.75624 30.8392 4.75619V30.2263C30.8392 32.2263 29.895 33.2577 28.1234 33.2577H6.80381ZM11.7041 9.19792H26.6588C27.0328 9.19792 27.3132 8.87746 27.3132 8.4826C27.3132 8.08377 27.0328 7.77213 26.6588 7.77213H11.7041C11.3257 7.77213 11.0453 8.08377 11.0453 8.4826C11.0453 8.87746 11.3257 9.19792 11.7041 9.19792ZM11.7041 15.1428H26.6588C27.0328 15.1428 27.3132 14.8351 27.3132 14.445C27.3132 14.0462 27.0328 13.7257 26.6588 13.7257H11.7041C11.3257 13.7257 11.0453 14.0462 11.0453 14.445C11.0453 14.8351 11.3257 15.1428 11.7041 15.1428ZM12.6754 27.1166H16.5487C17.5864 27.1166 18.2348 26.3961 18.2348 25.251V21.549C18.2348 20.4126 17.5864 19.6834 16.5487 19.6834H12.6754C11.6378 19.6834 10.9815 20.4126 10.9815 21.549V25.251C10.9815 26.3961 11.6378 27.1166 12.6754 27.1166ZM20.9729 21.1052H26.6473C27.0177 21.1052 27.2981 20.7976 27.2981 20.4075C27.2981 19.9999 27.0177 19.6834 26.6473 19.6834H20.9729C20.5946 19.6834 20.3142 19.9999 20.3142 20.4075C20.3142 20.7976 20.5946 21.1052 20.9729 21.1052ZM20.9729 27.1166H26.6473C27.0177 27.1166 27.2981 26.8049 27.2981 26.4149C27.2981 26.02 27.0177 25.6995 26.6473 25.6995H20.9729C20.5946 25.6995 20.3142 26.02 20.3142 26.4149C20.3142 26.8049 20.5946 27.1166 20.9729 27.1166Z" fill="white"/>
</svg>
